<svg xmlns="http://www.w3.org/2000/svg" viewBox="0 0 301.58 87.01"><defs><style>.cls-1{fill:#e1ba36;}.cls-2{fill:#1366a0;}.cls-3{fill:#f0bf3c;}.cls-4{fill:#127ca7;}.cls-5{fill:#135b80;}.cls-6{fill:#117ca7;}.cls-7{fill:#125a7f;}.cls-8{fill:#117ba7;}.cls-9{fill:#145c81;}.cls-10{fill:#013652;}</style></defs><title>LOGO</title><g id="Layer_2" data-name="Layer 2"><g id="Layer_1-2" data-name="Layer 1"><path class="cls-1" d="M12.31,13.23V24.28a1.14,1.14,0,0,0,.29.82.8.8,0,0,0,.59.29h.58v2.08H12.54a2.56,2.56,0,0,1-2.13-1,6.93,6.93,0,0,1-4.09,1.35,5.73,5.73,0,0,1-4.86-2.4A7.65,7.65,0,0,1,0,20.71a7.18,7.18,0,0,1,2.1-5.29,6.19,6.19,0,0,1,4.6-1.9,7.58,7.58,0,0,1,3.12.7l1.26-1Zm-2.49,3a5.74,5.74,0,0,0-2.6-.64,4.33,4.33,0,0,0-3.59,1.75,5.25,5.25,0,0,0-1.15,3.39A5.54,5.54,0,0,0,3.6,24.45a3.68,3.68,0,0,0,2.92,1.23,7.42,7.42,0,0,0,3.3-.85ZM7.31,7.59A1.43,1.43,0,0,1,8.74,9a1.43,1.43,0,0,1-.42,1,1.42,1.42,0,0,1-2,0,1.43,1.43,0,0,1-.42-1A1.43,1.43,0,0,1,7.31,7.59m3.54,0a1.4,1.4,0,0,1,1,.42,1.35,1.35,0,0,1,.43,1,1.45,1.45,0,0,1-1.46,1.46,1.38,1.38,0,0,1-1-.42,1.44,1.44,0,0,1-.43-1,1.45,1.45,0,0,1,1.44-1.43"/><path class="cls-1" d="M48.46,14V24.69a2.8,2.8,0,0,1-.09.7h1.55v2.08H48.78l-.85-1h-.09a2.47,2.47,0,0,1-2,1H13.56V25.39h31.3a1,1,0,0,0,.76-.29,1.09,1.09,0,0,0,.35-.82V14Zm-5,16.49a1.4,1.4,0,0,1,1,.42,1.38,1.38,0,0,1,.42,1,1.43,1.43,0,0,1-.42,1,1.4,1.4,0,0,1-1,.42,1.38,1.38,0,0,1-1-.42,1.44,1.44,0,0,1-.43-1,1.45,1.45,0,0,1,1.44-1.43m3.53,0a1.42,1.42,0,0,1,1,.42,1.39,1.39,0,0,1,.43,1A1.44,1.44,0,0,1,48,33a1.42,1.42,0,0,1-1,.42A1.36,1.36,0,0,1,46,33a1.4,1.4,0,0,1-.43-1A1.45,1.45,0,0,1,47,30.51"/><path class="cls-1" d="M81.5,18.78a8.06,8.06,0,0,1,7.42-5.11,8.06,8.06,0,0,1,7.4,5.11l-.26.7a9,9,0,0,0-3.31,2.31,7.21,7.21,0,0,0-1.66,3.6h5.52v2.08H90.68a2.4,2.4,0,0,1-1.7-.85h-.09a2.31,2.31,0,0,1-1.69.85H49.71V25.39H86.76A8.22,8.22,0,0,0,85.3,22a8.73,8.73,0,0,0-3.51-2.55Zm12.13-.29a6.79,6.79,0,0,0-2.19-2.1,5.34,5.34,0,0,0-2.52-.62,5.23,5.23,0,0,0-2.42.56,6,6,0,0,0-2.28,2.16,7.45,7.45,0,0,1,2.6,1.9,10.1,10.1,0,0,1,2,3.8H89a10.22,10.22,0,0,1,2.11-3.89,7.84,7.84,0,0,1,2.57-1.81"/><path class="cls-1" d="M126.87,25.39a8.4,8.4,0,0,1-1.19-4.47,7.29,7.29,0,0,1,2-5.47,6.77,6.77,0,0,1,4.71-1.75,6.25,6.25,0,0,1,3.48.9A4.91,4.91,0,0,1,138,19v5.29a1.16,1.16,0,0,0,.21.7.9.9,0,0,0,.7.41h.06v2.08h-.73a2.55,2.55,0,0,1-2.11-1,5,5,0,0,1-4,1.9,6,6,0,0,1-4.42-1.9h-.06l-.81,1H96.4V25.39Zm8.6-6.4a3.16,3.16,0,0,0-1-2.43,3.05,3.05,0,0,0-2.19-.79,3.72,3.72,0,0,0-3,1.39,5.56,5.56,0,0,0-1.14,3.64,6.36,6.36,0,0,0,1.2,3.95,3.45,3.45,0,0,0,2.86,1.52,4.6,4.6,0,0,0,3.25-1.55Z"/><path class="cls-1" d="M160.68,14.51a16.91,16.91,0,0,1,5-.84,6.82,6.82,0,0,1,5.52,2.25A7.55,7.55,0,0,1,172.87,21v3.71a2.69,2.69,0,0,1-.61,1.75,2.41,2.41,0,0,1-2,1H138.68V25.39h30.59a1,1,0,0,0,1.12-1.11V20.89a5.15,5.15,0,0,0-1.2-3.6,4.92,4.92,0,0,0-3.83-1.46,26.74,26.74,0,0,0-4.68.64Zm3.48,16a1.43,1.43,0,0,1,1,.42,1.38,1.38,0,0,1,.42,1,1.43,1.43,0,0,1-1.46,1.46,1.38,1.38,0,0,1-1-.42,1.43,1.43,0,0,1-.42-1,1.43,1.43,0,0,1,1.43-1.43"/><path class="cls-2" d="M31.8,49.4a26.72,26.72,0,0,0-7.31,1.22v4.1a31.43,31.43,0,0,1,6-.89,7.79,7.79,0,0,1,5.3,1.69,5.88,5.88,0,0,1,1.92,4.65V64a.93.93,0,0,1-1.06,1H18.07c0-.31.05-.79.05-1.43V59.53a9.87,9.87,0,0,0-2.66-7A10.41,10.41,0,0,0,7.6,49.4a19.16,19.16,0,0,0-3.33.25v4.1a10.19,10.19,0,0,1,2.15-.17,6.85,6.85,0,0,1,4.77,1.77A6.35,6.35,0,0,1,13,60V64a.93.93,0,0,1-1.05,1H0v4.31H13.55a4.42,4.42,0,0,0,2.83-1,8.15,8.15,0,0,0,.72-.72h.13l1.39,1.73H38.3a4.44,4.44,0,0,0,3.38-1.52,4.7,4.7,0,0,0,1.18-3.13V59.87A10,10,0,0,0,40,52.61,11,11,0,0,0,31.8,49.4"/><path class="cls-2" d="M77.44,46.06a2.65,2.65,0,0,0,2-.8,2.61,2.61,0,0,0,.8-1.9,2.73,2.73,0,0,0-2.75-2.74,2.59,2.59,0,0,0-1.9.8,2.65,2.65,0,0,0-.8,1.94,2.73,2.73,0,0,0,2.7,2.7"/><path class="cls-2" d="M71,46.06a2.65,2.65,0,0,0,2-.8,2.61,2.61,0,0,0,.8-1.9,2.75,2.75,0,1,0-5.49,0A2.73,2.73,0,0,0,71,46.06"/><path class="cls-2" d="M89.1,64a.94.94,0,0,1-.3.71A1.07,1.07,0,0,1,88,65H79.64V49.91H74.53V63.84a1.07,1.07,0,0,1-.38.84,1,1,0,0,1-.85.34H65.87V57.21a7.24,7.24,0,0,0-3-6.25,9.62,9.62,0,0,0-5.49-1.56,9.82,9.82,0,0,0-7.13,2.7,10,10,0,0,0-2.66,7.39,10.1,10.1,0,0,0,2.23,6.67,9.05,9.05,0,0,0,7.31,3.17H60.6Q60,75.12,53,75.11a19.12,19.12,0,0,1-3.26-.29v1.86l2.16,2.66h.13c.78,0,1.39.08,1.81.08A17.05,17.05,0,0,0,57.77,79a11,11,0,0,0,4.85-2.49,10,10,0,0,0,3.21-7.14h9.25a4.5,4.5,0,0,0,3.59-1.73h.08l1.56,1.73h9.34a4.23,4.23,0,0,0,3.42-1.61,4.37,4.37,0,0,0,1.14-3V39.1H89.1ZM60.72,65H57.85a4.88,4.88,0,0,1-3.8-1.52,5.81,5.81,0,0,1-1.39-4.09,6.34,6.34,0,0,1,1.26-4.18,4.22,4.22,0,0,1,3.42-1.52,3.31,3.31,0,0,1,3.38,3.5Z"/><polygon class="cls-2" points="100.03 70.39 102.57 70.39 105.19 68.27 105.19 39.09 100.03 39.09 100.03 70.39"/><path class="cls-2" d="M172.11,64a.93.93,0,0,1-1.05,1h-7.94v-.67c0-.34,0-.59,0-.76V52.31H158V64A.93.93,0,0,1,157,65h-8c0-.39.05-1,.05-1.81V54.76h-5.16V64a.93.93,0,0,1-1.05,1H130.6V49.91h-5.15V67.85q0,7.26-7.47,7.26a17,17,0,0,1-2.62-.21v1.82l2.07,2.57c.59,0,1.14,0,1.65,0a12.28,12.28,0,0,0,7.47-2.24,9.92,9.92,0,0,0,4-7.77h13.89A4.37,4.37,0,0,0,148,67.6h.13l1.6,1.73h8.87a4.37,4.37,0,0,0,3.55-1.73h.12l1.57,1.73h8.86A4.33,4.33,0,0,0,175.93,68a4.55,4.55,0,0,0,1.34-3.27V49.91h-5.16Z"/><path class="cls-2" d="M187,28.64a1.73,1.73,0,0,1-1.52-.72,1.89,1.89,0,0,1-.42-1.31c0-1.35.6-2,1.81-2a7.61,7.61,0,0,1,1.61.26V22.6a7.82,7.82,0,0,0-2.37-.38,3.52,3.52,0,0,0-2.7,1.12,4,4,0,0,0-1.06,2.85,4.37,4.37,0,0,0,.72,2.45H181.4v2.24h7.48l1-1.19V28.64Z"/><polygon class="cls-2" points="183.09 70.39 185.63 70.39 188.24 68.27 188.24 34.09 183.09 34.09 183.09 70.39"/><path class="cls-2" d="M30.52,39.41c1.81-.51,2.72-1.44,2.72-2.8a2.16,2.16,0,0,0-.61-1.6,2.09,2.09,0,0,0-1.56-.62,2.17,2.17,0,0,0-2.2,2.22,2.17,2.17,0,0,0,.72,1.62l-2.8.77v.66l.52.66Zm.55-3.84c.55,0,.82.37.82,1a1.34,1.34,0,0,1-.82,1.23,1.18,1.18,0,0,1-.85-1.26c0-.64.28-1,.85-1"/><path class="cls-2" d="M27.53,46.6h1.89a1.09,1.09,0,0,0,.66-.19,1.29,1.29,0,0,0,.33-.28h0l.44.47h1.48a1.22,1.22,0,0,0,1-.44,1.36,1.36,0,0,0,.33-.91V42H32.19v3.1a.25.25,0,0,1-.08.19.27.27,0,0,1-.19.08H30.69V42.68H29.2v2.41a.25.25,0,0,1-.11.22.29.29,0,0,1-.22.08h-.93c-.11,0-.17,0-.19-.11a.16.16,0,0,1-.08-.16V42.68h-.74l-.75.6v2a1.37,1.37,0,0,0,.34.91,1.27,1.27,0,0,0,1,.44"/><path class="cls-2" d="M188.25,15.19a2.09,2.09,0,0,0-1.57-.62,2.12,2.12,0,0,0-1.56.63,2.26,2.26,0,0,0,.08,3.21l-2.8.77v.65l.52.67,3.21-.91c1.81-.51,2.72-1.45,2.72-2.8a2.19,2.19,0,0,0-.6-1.6M186.68,18a1.18,1.18,0,0,1-.85-1.26c0-.64.28-1,.85-1s.82.36.82,1a1.34,1.34,0,0,1-.82,1.24"/><path class="cls-3" d="M300.91,23.45l.67-.63V45.31l-.67.64L279.76,65.82l-.06.06L257.41,86.82h0l-.09.07h0a.19.19,0,0,1-.09,0h0l-.08,0h0L257,87h0l-.12,0h0l-.09,0h0l-.09,0h0a.27.27,0,0,1-.08-.07h0l-22.3-20.95h0s0,0,0,0L212.58,45.56l-.75-.7-.2-.18V21.6l.22-.19,1-1L233.38,1.17l.79-.74h0l.45-.42.44.42h0l1.28,1.2,21,19.77h0l0,0,7.44-7-.33-.14-.32-.17-.3-.18-.29-.2-.27-.22-.25-.24-.23-.26-.21-.27-.2-.29-.17-.3-.14-.31-.13-.32L262,11.2l-.07-.34-.05-.36V9.91l0-.24,0-.23,0-.23L262,9l.06-.21.08-.22.09-.21.1-.21.11-.2.12-.19.12-.19.14-.18.15-.18L263.1,7l.17-.16.17-.15.18-.15.18-.13.2-.13.2-.12.21-.12.21-.1.22-.09.22-.08.23-.08.24-.06.24-.05.24,0,.25,0,.25,0h.25l.38,0,.38,0,.36.06.36.09.35.12.33.14.32.16.3.18.29.2.27.22.26.23.23.26.22.27.2.28.17.3.15.31L279.26.92l21.83,20.52.49.46-.67.63L279.75,42.41a.66.66,0,0,1,.19.46.68.68,0,0,1-.22.49Z"/><polygon class="cls-4" points="252.06 55.78 252.07 56.14 252.06 56.38 252.04 56.61 252.01 56.85 251.97 57.08 251.91 57.3 251.85 57.52 251.77 57.73 251.68 57.95 251.58 58.15 251.47 58.35 251.35 58.55 251.22 58.73 251.09 58.92 250.94 59.09 250.78 59.26 250.62 59.42 250.45 59.58 250.45 59.58 250.27 59.72 250.09 59.86 250.09 59.86 249.89 59.99 249.69 60.11 249.69 60.11 249.48 60.22 249.27 60.33 249.05 60.42 248.83 60.5 248.6 60.57 248.36 60.64 248.12 60.69 247.88 60.73 247.63 60.76 247.38 60.78 247.13 60.78 246.75 60.77 246.37 60.73 246 60.66 245.65 60.57 245.3 60.45 244.97 60.32 244.65 60.16 244.35 59.98 244.06 59.78 243.79 59.56 243.53 59.32 243.3 59.07 243.08 58.8 242.88 58.52 242.71 58.22 242.71 58.22 242.56 57.91 242.56 57.91 234.63 65.36 212.31 44.39 212.31 44.39 212.31 21.89 234.62 0.92 234.62 23.42 234.63 23.42 256.94 44.39 249.01 51.84 249.01 51.84 249.34 51.99 249.66 52.15 249.96 52.33 250.25 52.54 250.52 52.76 250.77 53 251 53.25 251.21 53.53 251.41 53.81 251.57 54.11 251.72 54.43 251.84 54.75 251.94 55.08 252.01 55.43 252.06 55.78"/><polygon class="cls-5" points="252.06 33.28 252.07 33.64 252.06 33.88 252.04 34.12 252.01 34.35 251.97 34.58 251.91 34.8 251.85 35.02 251.77 35.24 251.68 35.45 251.58 35.66 251.47 35.86 251.35 36.05 251.22 36.24 251.09 36.42 250.94 36.6 250.78 36.77 250.62 36.93 250.45 37.08 250.27 37.23 250.09 37.36 249.89 37.49 249.69 37.61 249.48 37.73 249.27 37.83 249.05 37.92 248.83 38 248.6 38.08 248.36 38.14 248.12 38.19 247.88 38.23 247.63 38.26 247.38 38.28 247.13 38.29 246.75 38.27 246.37 38.23 246 38.17 245.65 38.07 245.3 37.96 244.97 37.82 244.65 37.66 244.35 37.48 244.06 37.28 243.79 37.06 243.53 36.83 243.3 36.57 243.08 36.3 242.88 36.02 242.71 35.72 242.56 35.41 242.56 35.41 234.63 42.87 212.31 21.89 234.63 0.92 279.26 42.87 277.45 44.57 249.34 29.49 249.66 29.65 249.96 29.84 250.25 30.04 250.52 30.26 250.77 30.5 251 30.76 251.21 31.03 251.41 31.32 251.57 31.62 251.72 31.93 251.84 32.25 251.94 32.59 252.01 32.93 252.06 33.28"/><polygon class="cls-6" points="279.26 42.87 279.26 65.36 279.26 65.36 256.95 86.33 256.95 63.84 271.33 50.33 271.33 50.33 272.04 49.66 272.21 49.77 272.4 49.9 272.59 50.03 272.77 50.18 272.94 50.33 272.77 50.18 272.59 50.03 272.41 49.89 272.21 49.77 272.04 49.66 279.26 42.87"/><polygon class="cls-7" points="234.63 42.87 234.63 65.36 234.63 65.36 256.95 86.33 256.95 63.84 242.56 50.33 242.56 50.33 241.85 49.66 241.68 49.77 241.49 49.9 241.3 50.03 241.12 50.18 240.95 50.33 241.12 50.18 241.3 50.03 241.49 49.89 241.68 49.77 241.85 49.66 234.63 42.87"/><polygon class="cls-8" points="301.58 21.89 279.75 42.41 279.26 42.87 271.33 35.41 271.66 35.27 271.98 35.11 271.98 35.1 272.28 34.92 272.56 34.72 272.83 34.5 273.09 34.26 273.32 34 273.53 33.73 273.72 33.45 273.89 33.15 274.04 32.83 274.16 32.51 274.26 32.18 274.33 31.83 274.37 31.48 274.39 31.12 274.38 30.88 274.36 30.65 274.33 30.41 274.29 30.18 274.23 29.96 274.17 29.74 274.09 29.52 274 29.31 273.9 29.11 273.79 28.91 273.67 28.71 273.55 28.52 273.41 28.34 273.26 28.17 273.11 28 272.94 27.84 272.77 27.68 272.59 27.54 272.4 27.4 272.21 27.27 272.01 27.15 271.8 27.04 271.59 26.93 271.37 26.84 271.15 26.76 270.92 26.69 270.68 26.62 270.44 26.57 270.2 26.53 269.95 26.5 269.7 26.48 269.45 26.48 269.06 26.49 268.69 26.53 268.32 26.6 267.97 26.69 267.62 26.8 267.29 26.94 266.97 27.1 266.67 27.28 266.38 27.48 266.11 27.7 265.85 27.94 265.61 28.19 265.4 28.46 265.21 28.73 265.2 28.74 265.03 29.04 264.88 29.35 256.95 21.89 257.44 21.44 264.88 14.44 264.55 14.3 264.23 14.13 263.93 13.95 263.64 13.75 263.37 13.53 263.12 13.29 262.89 13.03 262.68 12.76 262.48 12.47 262.31 12.17 262.17 11.86 262.05 11.54 261.95 11.2 261.88 10.86 261.83 10.51 261.82 10.15 261.83 9.91 261.85 9.67 261.88 9.44 261.92 9.21 261.98 8.98 262.04 8.77 262.12 8.55 262.21 8.34 262.31 8.13 262.42 7.93 262.54 7.74 262.66 7.55 262.8 7.37 262.95 7.19 263.1 7.02 263.27 6.86 263.44 6.71 263.62 6.56 263.8 6.42 264 6.3 264.2 6.17 264.4 6.06 264.62 5.96 264.84 5.87 265.06 5.79 265.29 5.71 265.53 5.65 265.76 5.6 266.01 5.56 266.26 5.53 266.51 5.51 266.76 5.5 267.14 5.52 267.52 5.56 267.88 5.62 268.24 5.71 268.59 5.83 268.92 5.97 269.24 6.13 269.54 6.31 269.83 6.51 270.1 6.73 270.36 6.96 270.59 7.22 270.81 7.49 271 7.77 271.18 8.07 271.33 8.38 279.26 0.92 301.58 21.89"/><path class="cls-3" d="M301.09,21.44,279.26.92l-7.93,7.46-.15-.31-.17-.3-.2-.28-.22-.27L270.36,7l-.26-.23-.27-.22-.29-.2-.3-.18L268.92,6l-.33-.14-.35-.12-.36-.09-.36-.06-.38,0-.38,0h-.25l-.25,0-.25,0-.24,0-.24.05-.24.06-.23.08-.22.08-.22.09-.21.1-.21.12-.2.12-.2.13-.18.13-.18.15-.17.15L263.1,7l-.15.17-.15.18-.14.18-.12.19-.12.19-.11.2-.1.21-.09.21-.08.22L262,9l-.06.23,0,.23,0,.23,0,.24v.6l.05.35.07.34.09.34.13.32.14.31.17.3.2.29.21.27.23.26.25.24.27.22.29.2.3.18.32.17.33.14-7.44,7,0,0a.7.7,0,0,0-.45-.19v1.6l1.65,1.55h2l-2.63-2.47,7.41-7a.69.69,0,0,0,.21-.49.67.67,0,0,0-.43-.63,4,4,0,0,1-2.53-2.87,3.71,3.71,0,0,1,1-3.45,4.36,4.36,0,0,1,4-1.23,4.11,4.11,0,0,1,3.16,2.39.7.7,0,0,0,.49.39.68.68,0,0,0,.59-.17l7.47-7,21.34,20-3,2.77v.92l3.26-3.06.67-.63Z"/><path class="cls-3" d="M279.26,42.87l.34-.32.15-.14,9.86-9.27h0l11.3-10.61.67-.63h0l-.49-.46-.18.17L279.26,41.94h0l-.15.14-.18.17V65.94l.06,0a.65.65,0,0,0,.27,0,.67.67,0,0,0,.34-.09l.12-.09,0,0,21.15-19.88.67-.63v-.92l-.67.63-21.31,20-.34.31Z"/><polygon class="cls-9" points="301.58 21.9 301.58 44.39 301.58 44.39 301.58 44.39 279.26 65.36 279.26 42.87 289.61 33.14 289.61 33.14 289.61 33.14 301.58 21.9"/><polygon class="cls-3" points="301.58 21.89 301.58 45.31 300.91 45.94 300.91 21.61 301.09 21.43 301.58 21.89"/><path class="cls-3" d="M279.75,42.41l-.15.14-.34.32V43l-.33-.32-7.6-7.22.33-.14.32-.16.3-.19.29-.2.26-.22.26-.24.23-.26.21-.27.19-.28.17-.3.15-.32.12-.32.1-.33.07-.35,0-.35,0-.36v-.24l0-.23,0-.24,0-.23-.06-.22-.06-.22-.08-.22-.09-.21-.1-.2-.11-.2-.12-.2-.12-.18-.14-.19-.15-.17L273.1,28l-.16-.16-.17-.16-.18-.14-.19-.14-.19-.13-.2-.12L271.8,27l-.21-.1-.22-.1-.22-.08-.23-.07-.24-.07-.24-.05-.24,0-.25,0-.25,0h-.64l-.37,0-.37.07-.35.09-.35.11-.33.14-.32.16-.3.18-.29.2-.28.22-.25.24-.24.25-.21.27-.2.28-.58,1.76-3.16-1.66-4.88-7.51a.67.67,0,0,1,.82.08l0,0,7.27,6.83h0a5.66,5.66,0,0,1,3.71-2.37,5.75,5.75,0,0,1,5.17,1.63,5,5,0,0,1,1.34,4.67,5.3,5.3,0,0,1-2.43,3.39h0L279.26,42l.46.43,0,0"/><polygon class="cls-10" points="279.26 42.87 256.94 63.84 234.63 42.87 256.94 21.9 264.88 29.35 265.03 29.04 265.2 28.74 265.4 28.46 265.61 28.19 265.85 27.94 266.11 27.7 266.38 27.48 266.67 27.28 266.97 27.1 267.29 26.94 267.62 26.8 267.97 26.69 268.32 26.6 268.69 26.53 269.06 26.49 269.45 26.48 269.7 26.48 269.95 26.5 270.2 26.53 270.44 26.57 270.68 26.62 270.92 26.69 271.15 26.76 271.37 26.84 271.59 26.93 271.8 27.04 272.01 27.15 272.21 27.27 272.4 27.4 272.59 27.54 272.77 27.68 272.94 27.84 273.1 28 273.26 28.17 273.41 28.34 273.54 28.52 273.67 28.71 273.79 28.91 273.9 29.11 274 29.31 274.09 29.52 274.17 29.74 274.23 29.96 274.29 30.18 274.33 30.41 274.36 30.65 274.38 30.88 274.39 31.12 274.37 31.48 274.33 31.83 274.26 32.18 274.16 32.51 274.04 32.83 273.89 33.15 273.72 33.45 273.53 33.73 273.32 34 273.08 34.26 272.83 34.5 272.56 34.72 272.28 34.92 271.98 35.11 271.66 35.27 271.33 35.41 279.26 42.87"/><rect class="cls-3" x="278.93" y="42.09" width="0.67" height="23.71"/></g></g></svg>