<svg xmlns="http://www.w3.org/2000/svg" viewBox="0 0 24.45 24.33"><defs><style>.cls-1{fill:#e1ba36;}</style></defs><title>Asset 4</title><g id="Layer_2" data-name="Layer 2"><g id="Layer_2-2" data-name="Layer 2"><path class="cls-1" d="M20.26,12.18c1.35,1.56,2.53,3.27,4.19,5.44-2.82-.16-5-.19-7.09-.42a2.53,2.53,0,0,0-2.75,1.36c-1.14,1.8-2.43,3.49-4,5.77C9.92,21.79,9.32,19.94,9,18A3,3,0,0,0,6.42,15.2c-2-.44-3.85-1.14-6.42-1.93,2.17-1.43,3.81-2.68,5.6-3.64A2.93,2.93,0,0,0,7.36,6.44,25.52,25.52,0,0,1,7.62,0a35.66,35.66,0,0,1,3.7,3.07C13,4.87,14.69,5.5,17,4.22a33.9,33.9,0,0,1,5.24-1.76C21.32,5,20.63,7,19.77,9A2.68,2.68,0,0,0,20.26,12.18Z"/></g></g></svg>