<svg xmlns="http://www.w3.org/2000/svg" viewBox="0 0 45.46 40.17"><defs><style>.cls-1{fill:#117ba7;}.cls-2{fill:#e1ba36;}.cls-3{fill:#fff;}</style></defs><title>Asset 14</title><g id="Layer_2" data-name="Layer 2"><g id="Layer_1-2" data-name="Layer 1"><path class="cls-1" d="M17.15,34.35c.51,2.33-.1,4.06-1.75,5.12a4.36,4.36,0,0,1-4.93-.13C8.88,38.19,8.36,36.42,9,34.19A4.39,4.39,0,0,1,6.1,31.61,4.09,4.09,0,0,1,5.91,29a4.24,4.24,0,0,1,1.85-2.57,5,5,0,0,1,3.17-.69c-.07-.21-.12-.38-.18-.54Q7.14,15.58,3.54,6a.63.63,0,0,0-.75-.49,12.16,12.16,0,0,1-1.35,0A1.45,1.45,0,0,1,0,4.06,1.43,1.43,0,0,1,1.44,2.63c1,0,1.93,0,2.9,0A1.5,1.5,0,0,1,5.79,3.77q1.89,5.06,3.8,10.11,2.14,5.69,4.28,11.38a.56.56,0,0,0,.64.44H32.1c.8-4.81,1.6-9.58,2.41-14.42H13.35a2.82,2.82,0,0,1-.58,0A1.44,1.44,0,0,1,13,8.39H35.89c1.36,0,1.93.65,1.7,2L34.77,27.25a1.49,1.49,0,0,1-1.69,1.33H10.49a3.84,3.84,0,0,0-.59,0,1.44,1.44,0,0,0-1.2,1.52,1.47,1.47,0,0,0,1.35,1.34H21.64a1.44,1.44,0,1,1,0,2.88H17.15Zm-2.66,1.42a1.45,1.45,0,1,0-1.42,1.46,1.46,1.46,0,0,0,1.42-1.46"/><path class="cls-1" d="M30.42,40.11a4.33,4.33,0,1,1,4.35-4.27,4.34,4.34,0,0,1-4.35,4.27m1.45-4.32a1.45,1.45,0,1,0-1.44,1.44,1.44,1.44,0,0,0,1.44-1.44"/><path class="cls-2" d="M45.46,9.65A9.69,9.69,0,1,1,35.77,0a9.67,9.67,0,0,1,9.69,9.65"/><polygon class="cls-3" points="37.07 5.55 37.07 14.25 36.25 14.96 35.46 14.96 35.46 7.38 33.93 8.67 33.16 7.71 35.72 5.55 37.07 5.55"/></g></g></svg>