<svg xmlns="http://www.w3.org/2000/svg" viewBox="0 0 9.21 20.17"><defs><style>.cls-1{fill:#083750;}</style></defs><title>Asset 13</title><g id="Layer_2" data-name="Layer 2"><g id="Layer_1-2" data-name="Layer 1"><path class="cls-1" d="M2.25,2.53Q3.27,0,6.65,0h.5C8.52,0,9.21.1,9.21.29V3.22h-2c-1.18.11-1.77.67-1.77,1.67V7.25c0,.13.07.19.2.19H9v.19c-.2,2.15-.37,3.23-.5,3.23H5.68c-.11,0-.17.07-.2.2v9.11H2l0-.59V11.16c-.1-.2-.2-.3-.29-.3H0V7.44H1.67c.19-.11.29-.21.29-.3l-.1-3a10.6,10.6,0,0,1,.39-1.58"/></g></g></svg>