<svg xmlns="http://www.w3.org/2000/svg" viewBox="0 0 17.63 17.66"><defs><style>.cls-1{fill:#083750;}</style></defs><title>Asset 11</title><g id="Layer_2" data-name="Layer 2"><g id="Layer_1-2" data-name="Layer 1"><path class="cls-1" d="M.19,3.72A5,5,0,0,1,5.29,0h7.14l1.23.1,1.22.4c1.83.8,2.75,2.5,2.75,5.08v6.56q0,3.07-1.67,4.41c-.49.72-2.39,1.08-5.68,1.08-4.3.11-6.84-.05-7.63-.5Q0,15.74,0,11.56V6.46A17.72,17.72,0,0,1,.19,3.72m2.17-.88c-.52,0-.79,1.63-.79,4.89V9.9a30.68,30.68,0,0,0,.19,3.91q.63,2.34,4.32,2.34c1.47-.07,2.87-.1,4.2-.1h2.84c1.69,0,2.7-1.2,3-3.62V5.48c0-2.6-1.24-3.91-3.72-3.91H5.58C4,1.57,2.88,2,2.36,2.84M4.6,7.44A4.28,4.28,0,0,1,8.82,4.31h.1a4.55,4.55,0,0,1,2.63.89,4.49,4.49,0,0,1,1.86,3.41v.21q0,3.23-3.51,4.49h-2C5.52,12.49,4.31,11,4.31,8.92A4.6,4.6,0,0,1,4.6,7.44M5.87,8.92a2.37,2.37,0,0,0,.21,1,3,3,0,0,0,2.84,1.95c1.64,0,2.62-1,2.93-3a1.56,1.56,0,0,0-.09-.69A2.83,2.83,0,0,0,8.92,5.87h-.1c-1.73,0-2.71,1-2.95,3.05M13.5,3c.65,0,1,.4,1.19,1.19-.28.65-.64,1-1.07,1s-.81-.33-1.09-1A1.19,1.19,0,0,1,13.5,3"/></g></g></svg>