<svg xmlns="http://www.w3.org/2000/svg" viewBox="0 0 14.63 14.05"><defs><style>.cls-1{fill:#083750;}</style></defs><g id="Layer_2" data-name="Layer 2"><g id="Layer_1-2" data-name="Layer 1"><path class="cls-1" d="M1.75,0C3,.17,3.61.76,3.61,1.76v.1A1.81,1.81,0,0,1,1.84,3.32,1.66,1.66,0,0,1,0,1.86V1.27A1.9,1.9,0,0,1,1.75,0M.39,4.59H3.11L3.3,5v8.89a.17.17,0,0,1-.19.19H.39a.2.2,0,0,1-.2-.19V4.78c0-.11.07-.17.2-.19m10.23-.2h1a1.13,1.13,0,0,1,.29.06,3.75,3.75,0,0,1,2.21,1.63,3.38,3.38,0,0,1,.53,1.83v6.14H11.69c-.11,0-.17-.07-.19-.19v-5c0-1.36-.55-2.05-1.65-2.05s-1.51.69-1.67,2.05v5a.2.2,0,0,1-.19.19H5.26c-.11,0-.17-.07-.19-.19V4.59H8.18v1h.21a3.38,3.38,0,0,1,2.23-1.18"/></g></g></svg>