<svg xmlns="http://www.w3.org/2000/svg" viewBox="0 0 21.85 20.89"><defs><style>.cls-1{fill:#083750;}</style></defs><title>Asset 6</title><g id="Layer_2" data-name="Layer 2"><g id="Layer_1-2" data-name="Layer 1"><path class="cls-1" d="M21.85,11.08c-.05.4-.09.8-.17,1.2a10.28,10.28,0,0,1-4.9,7.11,10.19,10.19,0,0,1-5.67,1.5A10.41,10.41,0,0,1,1.69,14.3a.7.7,0,0,1,.38-1,.71.71,0,0,1,1,.44,9,9,0,0,0,9.64,5.58A9,9,0,1,0,3.06,7a.82.82,0,0,1-.6.58.71.71,0,0,1-.78-1A10.21,10.21,0,0,1,2.79,4.51,10.16,10.16,0,0,1,10.7,0a10.44,10.44,0,0,1,11,8.48c.08.43.12.87.18,1.3Z"/><path class="cls-1" d="M12.75,11.16H.87a1.63,1.63,0,0,1-.38,0,.72.72,0,0,1-.49-.7.7.7,0,0,1,.51-.66,1.46,1.46,0,0,1,.36,0H12.75a2.2,2.2,0,0,0-.19-.21L10.21,7.17A.7.7,0,0,1,10,6.41a.68.68,0,0,1,.58-.48.73.73,0,0,1,.63.24l1.15,1.15L15,9.89A.72.72,0,0,1,15,11l-3.73,3.72a.74.74,0,0,1-.65.26.71.71,0,0,1-.43-1.19l.13-.14,2.26-2.26.19-.2"/></g></g></svg>