<svg xmlns="http://www.w3.org/2000/svg" viewBox="0 0 20.89 20.89"><defs><style>.cls-1{fill:#083750;}</style></defs><title>Asset 7</title><g id="Layer_2" data-name="Layer 2"><g id="Layer_1-2" data-name="Layer 1"><path class="cls-1" d="M15.94,20.89a10.05,10.05,0,0,1-4.46-1.13A21.94,21.94,0,0,1,1.07,9.28a9.49,9.49,0,0,1-1-5A4.45,4.45,0,0,1,2.87.22,2.67,2.67,0,0,1,6.1,1.1c.81,1.1,1.51,2.11,2.15,3.08A2.74,2.74,0,0,1,7.6,7.87L7,8.29a26.55,26.55,0,0,0,5.6,5.6l.27-.38A2.78,2.78,0,0,1,17,12.79l2.63,1.84a2.78,2.78,0,0,1,1,3.75,4.52,4.52,0,0,1-3.89,2.49c-.23,0-.47,0-.7,0M4,1.13a1.73,1.73,0,0,0-.65.14,3.35,3.35,0,0,0-2.14,3.1,8.54,8.54,0,0,0,.93,4.42,20.86,20.86,0,0,0,9.89,10,8.56,8.56,0,0,0,4.57,1,3.36,3.36,0,0,0,3-1.87,1.63,1.63,0,0,0-.58-2.3L16.3,13.72a1.66,1.66,0,0,0-2.5.44l-.92,1.32-.46-.33A27.8,27.8,0,0,1,5.75,8.48L5.43,8l.81-.57L6.91,7A1.6,1.6,0,0,0,7.3,4.81c-.63-1-1.32-1.95-2.12-3A1.52,1.52,0,0,0,4,1.13"/></g></g></svg>