<svg xmlns="http://www.w3.org/2000/svg" viewBox="0 0 21.24 20.9"><defs><style>.cls-1{fill:#083750;}</style></defs><title>Asset 3</title><g id="Layer_2" data-name="Layer 2"><g id="Layer_1-2" data-name="Layer 1"><path class="cls-1" d="M1.22,20.89A1.26,1.26,0,0,1,0,19.9l0-.49a2.28,2.28,0,0,1,.68-1l2.66-2.64,2-2a.75.75,0,0,0,.12-1A8.32,8.32,0,0,1,4.32,7.67a8.19,8.19,0,0,1,2-4.74A8.21,8.21,0,0,1,11.08.18,8.91,8.91,0,0,1,12.84,0a8.13,8.13,0,0,1,4.23,1.19,8.39,8.39,0,0,1,4,5.54c.05.21.07.44.1.66l.05.37,0,.16V9.06l0,.28c0,.24-.07.49-.12.74a8.48,8.48,0,0,1-7,6.75,9.14,9.14,0,0,1-1.37.11,8.39,8.39,0,0,1-4.45-1.3l-.7-.45-.49.46L2.28,20.43a1.32,1.32,0,0,1-1,.47Zm11.49-19a6.63,6.63,0,1,0,.07,0Z"/></g></g></svg>