<svg xmlns="http://www.w3.org/2000/svg" viewBox="0 0 18.97 17.9"><defs><style>.cls-1{fill:#083750;}</style></defs><title>Asset 8</title><g id="Layer_2" data-name="Layer 2"><g id="Layer_1-2" data-name="Layer 1"><path class="cls-1" d="M4.3,4.3V7.23a.18.18,0,0,1-.19.2H4c-.68-.2-1-.29-1.07-.29-.61,0-.94.26-1,.78v.29q0,.4,2,1.08l.29.4v.38c-.87,1.71-1.85,2.72-2.93,3-.85.27-1.27.53-1.27.79,0,.46.85.88,2.54,1.27.19.79.38,1.18.59,1.18s.61-.07,1.57-.21h.19a7.67,7.67,0,0,1,3,1.48,2.49,2.49,0,0,0,1.27.29h.59a6.64,6.64,0,0,0,3.42-1.56,5.91,5.91,0,0,0,.78-.21h.2l1.76.21.69-1.28c1.56-.28,2.34-.6,2.34-1V13.7c0-.14-.65-.41-1.86-.79-1.45-1.21-2.23-2.25-2.34-3.13.08-.31.73-.7,2-1.17a2.38,2.38,0,0,0,.38-.49V8c0-.59-.36-.88-1.07-.88L15,7.43h-.09a.18.18,0,0,1-.2-.2V4.49q0-3.17-4-4.39A8.61,8.61,0,0,1,9.59,0a5,5,0,0,0-5.1,3.42,3.55,3.55,0,0,0-.19.88"/></g></g></svg>