<svg xmlns="http://www.w3.org/2000/svg" viewBox="0 0 51.97 38.95"><defs><style>.cls-1{fill:#117ba7;}.cls-2{fill:#e1ba36;}</style></defs><g id="Layer_2" data-name="Layer 2"><g id="Layer_1-2" data-name="Layer 1"><path class="cls-1" d="M9.17,17.78c-.72-.64-1.49-1.28-2.23-1.9-2.47-2-5-4.15-6.33-6.89A6.49,6.49,0,0,1,1,2.77,5.59,5.59,0,0,1,5.78,0l.56,0A6.9,6.9,0,0,1,11,3.16a.3.3,0,0,0,.25.14h0a.37.37,0,0,0,.26-.21,5.3,5.3,0,0,1,4.94-3A5.69,5.69,0,0,1,22.15,5a7.58,7.58,0,0,1-1.61,5.83,4.94,4.94,0,0,0-.26-.92,6.07,6.07,0,0,0,.78-5.79A5.69,5.69,0,0,0,16.26.83c-1.07,0-3.08.42-4.3,3.33-.2.47-.3,1.27-.8,1.27h0c-.24,0-.41-.23-.57-.67a5.51,5.51,0,0,0-5-4,4.33,4.33,0,0,0-2.69,1A5.65,5.65,0,0,0,.73,6.09C.8,9.9,5.16,13.52,8.35,16.17l.91.76A3.36,3.36,0,0,0,9.17,17.78Z"/><path class="cls-2" d="M15.93,8.89A3.69,3.69,0,0,0,13.15,10,4.49,4.49,0,0,0,12,13.24a4,4,0,0,0,1.2,3H12a1.3,1.3,0,0,0-1,.43,1.38,1.38,0,0,0-.46,1V23.8h.49l.53-.43V18a.73.73,0,0,1,.81-.83H16A4.88,4.88,0,0,0,17.39,17a3.39,3.39,0,0,0,.92-.37l.13-.07a1.29,1.29,0,0,0,.53.46,1.23,1.23,0,0,0,.65.16h.44v-.94h0a.82.82,0,0,1-.58-.24.8.8,0,0,1-.21-.59V12.05a3,3,0,0,0-.94-2.43,3.47,3.47,0,0,0-2.36-.73Zm.16,7.4Q13,16.29,13,13.22A3.73,3.73,0,0,1,13.67,11a2.63,2.63,0,0,1,2.26-1.16,2.39,2.39,0,0,1,1.57.51,2.27,2.27,0,0,1,.71,1.71v3.66a4.18,4.18,0,0,1-2.12.58Z"/><path class="cls-2" d="M28.22,8.38a8.72,8.72,0,0,0-3.9.9v.83a2.94,2.94,0,0,0-.87.53,3.63,3.63,0,0,0-1,2.77,4.31,4.31,0,0,0,.41,1.82,4,4,0,0,0,.74,1H19.92v.94h4.2a9,9,0,0,0,1.47-.07h.07a8.66,8.66,0,0,0,1.43.07h4.15a1.3,1.3,0,0,0,1-.42,1.4,1.4,0,0,0,.46-1v-1.9a7.2,7.2,0,0,0-.8-3.73,3.93,3.93,0,0,0-3.65-1.73ZM25.34,9.86a7.82,7.82,0,0,1,2.72-.54,3.62,3.62,0,0,1,2.49.81c.73.63,1.1,1.95,1.1,3.95v1.36a.86.86,0,0,1-.23.64.88.88,0,0,1-.6.19H27.6a4.39,4.39,0,0,0,1.17-2.89A4,4,0,0,0,28.1,11a2.88,2.88,0,0,0-2.48-1.14Zm.25,6.33A2.3,2.3,0,0,1,23.8,15a3,3,0,0,1-.4-1.54,3.16,3.16,0,0,1,.65-2.17,2,2,0,0,1,1.54-.62,1.94,1.94,0,0,1,1.53.62,2.91,2.91,0,0,1,.71,2.17,3,3,0,0,1-.39,1.48,2.39,2.39,0,0,1-1.85,1.26Z"/><path class="cls-2" d="M35.88,4.57h-1V15.74a1.4,1.4,0,0,0,.46,1,1.3,1.3,0,0,0,1,.42h.49v-.94H36.7a.81.81,0,0,1-.62-.22.9.9,0,0,1-.2-.61V4.57Z"/><path class="cls-2" d="M52,9.09H51v6.35a.73.73,0,0,1-.83.83h-3a1.46,1.46,0,0,0,.1-.53V10.09h-1v5.35a.73.73,0,0,1-.83.83h-3a1.4,1.4,0,0,0,.11-.53V11.12h-1v4.32a.73.73,0,0,1-.83.83H36.64v.94H41a1.38,1.38,0,0,0,1.09-.55h0l.4.55h3.23a1.38,1.38,0,0,0,1.1-.55h0l.41.55h3.23a1.36,1.36,0,0,0,1-.44,1.46,1.46,0,0,0,.42-1V9.09Z"/><path class="cls-2" d="M11.6,25.76h-1V36.94A1.38,1.38,0,0,0,11,38a1.3,1.3,0,0,0,1,.42h.49v-.93h-.09a.83.83,0,0,1-.62-.23.85.85,0,0,1-.19-.6V25.76Z"/><path class="cls-2" d="M21.4,26.39a.63.63,0,0,0-.47.2.66.66,0,0,0-.2.48.65.65,0,0,0,.2.46.61.61,0,0,0,.47.21.64.64,0,0,0,.47-.21.61.61,0,0,0,.2-.46.62.62,0,0,0-.2-.48.67.67,0,0,0-.47-.2Zm.5,3.89h-1v6.36a.83.83,0,0,1-.19.58.8.8,0,0,1-.64.25h-7.7v.93h8.11a1.4,1.4,0,0,0,1.09-.54h.05l.39.54h.76v-.93h-1a1.57,1.57,0,0,0,.11-.53V30.28Z"/><path class="cls-2" d="M32.58,30.09a4.52,4.52,0,0,0-2.19.56A5,5,0,0,0,28.24,33l.16.39a6.13,6.13,0,0,1,2.22,1.43,4.93,4.93,0,0,1,1.1,2.67H22.64v.93H31.5a1.41,1.41,0,0,0,1.08-.46h.05a1.49,1.49,0,0,0,1.12.46H37.1v-.93H33.46a4.87,4.87,0,0,1,1.15-2.76,6.35,6.35,0,0,1,2.16-1.34l.16-.39A5.1,5.1,0,0,0,35,30.83a4.38,4.38,0,0,0-2.46-.74Zm0,6.74A6.86,6.86,0,0,0,31.2,34a6.16,6.16,0,0,0-1.8-1.18,4.05,4.05,0,0,1,1.52-1.34A3.61,3.61,0,0,1,32.58,31a3.87,3.87,0,0,1,1.59.37,4.27,4.27,0,0,1,1.59,1.38,5.88,5.88,0,0,0-1.92,1.31,7.33,7.33,0,0,0-1.24,2.75Z"/><path class="cls-2" d="M48,30.09a3.61,3.61,0,0,0-2.37.72,3.09,3.09,0,0,0-.92,2.44v3.39a.73.73,0,0,1-.23.58.79.79,0,0,1-.6.25H37v.93h7.35a1.43,1.43,0,0,0,1.2-.61A3.34,3.34,0,0,0,48.05,39a3.61,3.61,0,0,0,3-1.43,4.7,4.7,0,0,0,.92-3,4.67,4.67,0,0,0-1.18-3.41A3.74,3.74,0,0,0,48,30.09ZM48.09,38a3.18,3.18,0,0,1-2.35-1.11V33.25a2.25,2.25,0,0,1,.72-1.72A2.33,2.33,0,0,1,48,31a2.57,2.57,0,0,1,2.31,1.24A4.13,4.13,0,0,1,51,34.55a4,4,0,0,1-.66,2.3A2.53,2.53,0,0,1,48.09,38Z"/></g></g></svg>