<svg xmlns="http://www.w3.org/2000/svg" viewBox="0 0 20.88 20.89"><defs><style>.cls-1{fill:#083750;}</style></defs><title>Asset 4</title><g id="Layer_2" data-name="Layer 2"><g id="Layer_1-2" data-name="Layer 1"><path class="cls-1" d="M20.88,9.83v1.23c0,.15,0,.29-.05.44a10.27,10.27,0,0,1-2.62,5.91,10.22,10.22,0,0,1-6,3.32c-.4.07-.79.11-1.19.16H9.83c-.35,0-.7-.07-1.05-.13a10.13,10.13,0,0,1-5.65-2.87A10.17,10.17,0,0,1,.05,9.4,10,10,0,0,1,2.6,3.56,10.25,10.25,0,0,1,10,0a9.9,9.9,0,0,1,5.76,1.46,10.27,10.27,0,0,1,5,7.18c.07.39.11.79.16,1.18M5.25,17.74v-.25c0-.87,0-1.75,0-2.62a3.31,3.31,0,0,1,2.45-3.08c.31-.08.64-.1,1-.16A3.84,3.84,0,0,1,6.63,8.9a3.69,3.69,0,0,1,.9-3.3,3.85,3.85,0,0,1,5.67-.16,3.74,3.74,0,0,1,1.11,3,3.85,3.85,0,0,1-2.14,3.2c.28,0,.54,0,.79.1A3.3,3.3,0,0,1,15.62,15c0,.85,0,1.7,0,2.55v.23a9,9,0,1,0-10.37,0m5.2-4.56v0H8.69a1.76,1.76,0,0,0-.56.07,1.83,1.83,0,0,0-1.4,1.86c0,1.12,0,2.23,0,3.35a.23.23,0,0,0,.17.25,8.94,8.94,0,0,0,7.1,0,.22.22,0,0,0,.16-.25V15.3a4.26,4.26,0,0,0,0-.61,1.79,1.79,0,0,0-1.54-1.51c-.71,0-1.42,0-2.12,0m0-2.61A2.41,2.41,0,1,0,8,8.15a2.42,2.42,0,0,0,2.41,2.42"/></g></g></svg>