<svg xmlns="http://www.w3.org/2000/svg" viewBox="0 0 42.65 30.43"><defs><style>.cls-1{fill:#f5f5f5;}</style></defs><title>Asset 3</title><g id="Layer_2" data-name="Layer 2"><g id="Layer_2-2" data-name="Layer 2"><path class="cls-1" d="M42.65,6.87c-1.47.47-2.42,1.68-3.56,2.6-4.19,3.38-8.33,6.84-12.49,10.26-2.13,1.74-3.65,1.78-5.7.1-4.88-4-9.73-8-14.61-12-.73-.6-1.58-1.2-1.11-2.25s1.39-.41,2.08-.42q16.5,0,33,0c.82,0,1.7-.16,2.39.5Z"/><path class="cls-1" d="M42.65,30.33l-36.24.06c-.45,0-1.1.24-1.24-.42a1.66,1.66,0,0,1,.5-1.92q5.57-4.11,11.1-8.28c.81-.61,1.26-.09,1.82.35,1.1.88,2.07,2,3.5,2.37a5.64,5.64,0,0,0,6-1.79c1.3-1.39,2.31-1.27,3.7-.09,3.52,2.95,7.47,5.34,10.88,8.44Z"/><path class="cls-1" d="M0,0Q17.68,0,35.38,0c1.24,0,1.87.11,1.88,1.66s-.67,1.78-2,1.78c-9.95,0-19.9,0-29.84-.08-1.74,0-2.08.52-2.05,2.13.09,5.61,0,11.22,0,16.83,0,3.26,0,3.26-3.4,2.89Z"/><path class="cls-1" d="M5.16,26.32V9.06l11,9Z"/><path class="cls-1" d="M31.23,18.13l10.93-9V26.28Z"/></g></g></svg>