<svg xmlns="http://www.w3.org/2000/svg" viewBox="0 0 37.21 37.25"><defs><style>.cls-1{fill:#e1ba36;}</style></defs><title>Asset 2</title><g id="Layer_2" data-name="Layer 2"><g id="Layer_2-2" data-name="Layer 2"><path class="cls-1" d="M30.09,37.25a16.43,16.43,0,0,1-7.72-2.72A63,63,0,0,1,2.57,14.66a10.79,10.79,0,0,1-.8-1.5C-1.13,6.4-.81,5.5,5.34.78c1.68-1.29,2.91-1,4.12.8S11.8,5.31,13.14,7s1.52,3.61.12,5.41-1.08,3,.42,4.53c2.45,2.46,4.79,5,7.45,7.28.95.8,1.74,1,2.75.21,2.48-2,4.83-1.77,7.25.26a45.45,45.45,0,0,0,4.77,3.18,2.3,2.3,0,0,1,1,3.12,15.17,15.17,0,0,1-5.59,6A3.24,3.24,0,0,1,30.09,37.25Z"/><path class="cls-1" d="M22.07,6.88l3.5,3.23c.45.42.81.9.35,1.46s-1,.26-1.46-.14C22.72,9.87,21,8.27,19.25,6.73c-.67-.59-.55-1,.05-1.52,1.7-1.49,3.37-3,5.05-4.56.48-.43,1-1,1.6-.21S25.89,1.6,25.39,2c-1,.88-2,1.79-3.45,3.11,2.3,0,4.07,0,5.84,0,5.21,0,7.65,2.49,7.69,7.7,0,1.84,0,3.69,0,5.53,0,.58,0,1.17-.84,1.15s-.89-.51-.89-1.14c0-2,0-4,0-6-.06-3.71-1.82-5.5-5.47-5.55C26.37,6.86,24.47,6.88,22.07,6.88Z"/></g></g></svg>