<svg xmlns="http://www.w3.org/2000/svg" viewBox="0 0 63.88 63.89"><defs><style>.cls-1{fill:#ecac10;}</style></defs><title>Asset 11</title><g id="Layer_2" data-name="Layer 2"><g id="Layer_2-2" data-name="Layer 2"><path class="cls-1" d="M30.62.11a6.78,6.78,0,0,1,2.5,0,20.45,20.45,0,0,1,4.39,2.49c1.58,1,3.13,2,4.69,3a2,2,0,0,0,1.16.34c3,0,6,0,8.93,0A5.45,5.45,0,0,1,58,11.58c0,1.14,0,2.29,0,3.43a.76.76,0,0,0,.41.75c1.52,1,3,1.93,4.54,2.87a1.87,1.87,0,0,1,1,1.75q0,18.9,0,37.8a5.47,5.47,0,0,1-5.7,5.71H5.69A5.45,5.45,0,0,1,0,58.23q0-19,0-37.92a1.78,1.78,0,0,1,.92-1.65c1.39-.88,2.75-1.8,4.17-2.63a1.42,1.42,0,0,0,.83-1.47c-.07-1,0-2,0-3a5.46,5.46,0,0,1,5.63-5.64q4.44,0,8.87,0a2,2,0,0,0,1.17-.34c2.32-1.51,4.65-3,7-4.5A6.67,6.67,0,0,1,30.62.11ZM5.9,19.05c-.92.58-1.7,1.1-2.51,1.57a.8.8,0,0,0-.44.8c0,3.4,0,6.79,0,10.19a.83.83,0,0,0,.45.8q13.47,8.54,26.94,17.1a2.52,2.52,0,0,0,3,0c1.07-.72,2.17-1.39,3.26-2.08L60.43,32.37a.83.83,0,0,0,.5-.77c0-3.41,0-6.83,0-10.25,0-.18,0-.4-.14-.52L58,19.05v.81q0,5.31,0,10.63c0,.2,0,.41,0,.62A1.44,1.44,0,0,1,57,32.34a1.36,1.36,0,0,1-1.46-.25A1.7,1.7,0,0,1,55,30.58V11.71c0-1.94-.89-2.82-2.83-2.83H11.82c-2.11,0-3,.85-3,3V30.46a3.55,3.55,0,0,1-.06.8,1.43,1.43,0,0,1-2.33.85,1.6,1.6,0,0,1-.57-1.44V19.05Zm55,16.56L60,36.2Q47.46,44.12,35,52a5.34,5.34,0,0,1-6.25,0Q16.14,44,3.53,36c-.15-.09-.29-.3-.48-.21s-.09.3-.09.46v22a2.73,2.73,0,0,0,.38,1.55,2.71,2.71,0,0,0,2.55,1.14H58c.27,0,.54,0,.81,0a2,2,0,0,0,1-.39,2.59,2.59,0,0,0,1.09-2.37q0-11,0-21.93C60.92,36.05,60.9,35.88,60.89,35.61ZM37.07,5.89l-3.9-2.48a2.33,2.33,0,0,0-2.69,0C29.65,4,28.83,4.49,28,5l-1.34.87Z"/><path class="cls-1" d="M25.76,14.76a8.26,8.26,0,0,1,5.69,2c.39.35.6.29,1,0a8,8,0,0,1,8.64-1.32,7.91,7.91,0,0,1,5,7.07c.26,3.17-1,5.92-2.68,8.45A35.69,35.69,0,0,1,34,40.16L32.9,41A1.58,1.58,0,0,1,31,41,38,38,0,0,1,20.39,31a14.76,14.76,0,0,1-2.68-7.29A8.33,8.33,0,0,1,24,15,7,7,0,0,1,25.76,14.76Zm.55,3a5.49,5.49,0,0,0-5.67,5.87,11.59,11.59,0,0,0,1.56,4.76c2.32,4,5.74,6.88,9.42,9.52a.45.45,0,0,0,.6,0,38,38,0,0,0,7.22-6.42,14.51,14.51,0,0,0,3.76-7.53,5.69,5.69,0,0,0-2.59-5.39,5.3,5.3,0,0,0-7.29,1.71,1.55,1.55,0,0,1-2.72.07l-.22-.3A5.09,5.09,0,0,0,26.31,17.73Z"/></g></g></svg>