<svg xmlns="http://www.w3.org/2000/svg" viewBox="0 0 64.63 64.75"><defs><style>.cls-1{fill:#fefdfb;}.cls-2{fill:#ebab22;}</style></defs><title>Asset 10</title><g id="Layer_2" data-name="Layer 2"><g id="Layer_2-2" data-name="Layer 2"><path class="cls-1" d="M33.28,0V.22A4.27,4.27,0,0,0,31.5.2L31.38,0Z"/><path class="cls-2" d="M20.59,32.4c-.11-5.89,4.89-11.35,11.25-11.92A12,12,0,1,1,20.59,32.4Zm21.5.43A9.85,9.85,0,0,0,32.34,23a9.7,9.7,0,0,0-9.82,9.85,9.59,9.59,0,0,0,9.79,9.74A9.73,9.73,0,0,0,42.09,32.83Z"/><path class="cls-2" d="M32.07,64.75h-6c-1.13,0-1.55-.47-1.4-1.58a8.52,8.52,0,0,1,3.61-6c.33-.24.44-.35.09-.72-1.72-1.81-.82-5.42,1.6-6.49a4.42,4.42,0,0,1,6.4,3.87,3.94,3.94,0,0,1-.92,2.57c-.24.33-.27.47.12.71a7.63,7.63,0,0,1,3.94,6.21c.09,1-.26,1.44-1.32,1.44Zm.38-1.94c1.55,0,3.1,0,4.64,0,.51,0,.56-.15.39-.58A6,6,0,0,0,35,59.15a5.17,5.17,0,0,0-7.59,3c-.14.5-.08.73.52.71C29.41,62.79,30.93,62.81,32.45,62.81Zm-.16-10.74a2.13,2.13,0,0,0-2.19,2.08,2.91,2.91,0,0,0,2.34,2.32,2.15,2.15,0,0,0,2.08-2.2A2.18,2.18,0,0,0,32.29,52.07Z"/><path class="cls-2" d="M49.57,22.61c-2,0-4.06,0-6.09,0-1.07,0-1.48-.43-1.35-1.48A8.45,8.45,0,0,1,45.72,15c.33-.24.46-.34.09-.7-1.19-1.19-1.13-3.82.08-5.28a4.54,4.54,0,0,1,5-1.43,4.32,4.32,0,0,1,3,4.09,4,4,0,0,1-1,2.62c-.22.29-.22.4.11.59a7.73,7.73,0,0,1,4,6.24c.09,1-.27,1.44-1.31,1.44C53.64,22.62,51.6,22.61,49.57,22.61Zm.12-1.9c1.62,0,3.25,0,4.87,0,.4,0,.52-.05.38-.49a5.72,5.72,0,0,0-5.23-3.93,5.78,5.78,0,0,0-5.24,3.92c-.15.45,0,.51.4.51C46.47,20.7,48.08,20.71,49.69,20.71ZM47.51,12a2.62,2.62,0,0,0,2.27,2.34,2.19,2.19,0,0,0,2.16-2.19,2.23,2.23,0,0,0-2.18-2.25A2.2,2.2,0,0,0,47.51,12Z"/><path class="cls-2" d="M54.08,32.12a3.78,3.78,0,0,1-1-4.27,4,4,0,0,1,3.42-2.93,4.3,4.3,0,0,1,5.15,3.61,3.86,3.86,0,0,1-.82,3.1c-.29.39-.29.52.14.78a6.9,6.9,0,0,1,3.63,6.2c0,1.07-.35,1.41-1.41,1.41H51.16c-1.19,0-1.57-.46-1.43-1.67a7.82,7.82,0,0,1,3.88-5.94Zm3.23,5.72h4.88c.34,0,.51,0,.38-.46a5.66,5.66,0,0,0-5.24-4,5.39,5.39,0,0,0-5.26,3.89c-.15.47,0,.57.42.56C54.1,37.83,55.71,37.84,57.31,37.84Zm-2.19-8.6a2.16,2.16,0,0,0,2.18,2.24,2.21,2.21,0,1,0,0-4.42A2.15,2.15,0,0,0,55.12,29.24Z"/><path class="cls-2" d="M11.92,15a4.63,4.63,0,0,1-.34-5.68A4.29,4.29,0,0,1,17,8.22a4.47,4.47,0,0,1,2.15,5.09,2.44,2.44,0,0,1-.5,1c-.29.33-.15.44.16.63a7.6,7.6,0,0,1,4,6.46c0,1-.34,1.29-1.29,1.21-.42,0-.84,0-1.27,0H9c-1.09,0-1.46-.33-1.36-1.4A7.39,7.39,0,0,1,11.92,15Zm8.59,5.69a5.65,5.65,0,0,0-5.19-4.42A5.77,5.77,0,0,0,10,20.22c-.13.43,0,.5.4.5,2,0,4.07,0,6.1,0Zm-3.11-8.6a2.19,2.19,0,0,0-2.25-2.18A2.23,2.23,0,0,0,13,12.13a2.19,2.19,0,0,0,2.27,1.95A2.09,2.09,0,0,0,17.4,12.11Z"/><path class="cls-2" d="M4.35,32.12C2.16,30.07,3.16,26,6,25.05a4.44,4.44,0,0,1,4.87,1.54,4.14,4.14,0,0,1,0,5.07c-.28.36-.26.49.13.73a7.64,7.64,0,0,1,3.93,6.36c.05.9-.32,1.27-1.24,1.27H1.25C.34,40,0,39.66,0,38.75a7.58,7.58,0,0,1,3.71-6.22Zm8.54,6s0-.08,0-.09a5.71,5.71,0,0,0-5.23-4.33,5.82,5.82,0,0,0-5.34,4c-.12.4,0,.47.36.47,1.08,0,2.16,0,3.23,0ZM9.79,29.3a2.15,2.15,0,0,0-2.16-2.24,2.21,2.21,0,1,0-.07,4.42A2.18,2.18,0,0,0,9.79,29.3Z"/><path class="cls-2" d="M11.64,49.53C9.9,48,10.15,45,11.77,43.44a4.6,4.6,0,0,1,6.36.18,3.89,3.89,0,0,1,.05,5.52c0,.26.28.28.44.37a7.83,7.83,0,0,1,3.83,6c.15,1.25-.21,1.66-1.48,1.66H9.1c-1.24,0-1.58-.32-1.48-1.55a7.71,7.71,0,0,1,3-5.33C10.94,50,11.29,49.78,11.64,49.53Zm3.58,5.72c1.61,0,3.21,0,4.82,0,.43,0,.54-.08.39-.52a5.67,5.67,0,0,0-5.15-3.93A5.63,5.63,0,0,0,10,54.62c-.16.45-.14.65.42.64C12,55.23,13.62,55.25,15.22,55.25Zm0-10.78A2.19,2.19,0,0,0,13,46.61a2.65,2.65,0,0,0,2.34,2.28,2.15,2.15,0,0,0,2.09-2.2A2.19,2.19,0,0,0,15.2,44.47Z"/><path class="cls-2" d="M52.6,49.53a8.37,8.37,0,0,1,3.33,3.1A8,8,0,0,1,57,56.25a1,1,0,0,1-1.13,1.19q-6.28,0-12.57,0c-.9,0-1.27-.47-1.18-1.47A7.73,7.73,0,0,1,46,49.83l.49-.3c-1.7-1.33-1.44-4.43,0-5.91a4.5,4.5,0,0,1,6-.39C54.25,44.77,54.34,47.29,52.6,49.53Zm-2.92,5.72h4.18c1.38,0,1.38,0,.77-1.26a5.51,5.51,0,0,0-5.45-3.17,5.43,5.43,0,0,0-4.69,3.79c-.14.44-.17.67.44.65C46.51,55.22,48.1,55.25,49.68,55.25Zm.07-10.78a2.17,2.17,0,0,0-2.24,2.11,2.58,2.58,0,0,0,2.37,2.3,2.17,2.17,0,0,0,2.06-2.16A2.21,2.21,0,0,0,49.75,44.47Z"/><path class="cls-2" d="M31.5.2a4.27,4.27,0,0,1,1.78,0,3.89,3.89,0,0,1,2.21,6.45c-.29.39-.2.48.16.7a7.72,7.72,0,0,1,3.93,6.43A1,1,0,0,1,38.46,15H25.89c-.91,0-1.3-.48-1.19-1.45A7.6,7.6,0,0,1,28.05,8a2.41,2.41,0,0,1,.48-.3c.49-.2.57-.41.28-.92a4.5,4.5,0,0,1,.76-5.59A4.27,4.27,0,0,1,31.5.2Zm1,12.9c1.57,0,3.13,0,4.7,0,.43,0,.49-.1.36-.51a5.61,5.61,0,0,0-6.06-3.85,5.23,5.23,0,0,0-4.13,3.74c-.11.45,0,.64.5.63C29.37,13.08,30.92,13.1,32.46,13.1ZM32.27,2.37A2.11,2.11,0,0,0,30.1,4.53a2.83,2.83,0,0,0,2.42,2.21,2.12,2.12,0,0,0,2-2.2A2.17,2.17,0,0,0,32.27,2.37Z"/></g></g></svg>