<svg xmlns="http://www.w3.org/2000/svg" viewBox="0 0 64.03 64.04"><defs><style>.cls-1{fill:#ebab21;}</style></defs><title>Asset 7</title><g id="Layer_2" data-name="Layer 2"><g id="Layer_2-2" data-name="Layer 2"><path class="cls-1" d="M29.53.1a33.12,33.12,0,0,1,5.27,0,31.77,31.77,0,0,1,18,7.44A32,32,0,0,1,63.86,26.91,9.83,9.83,0,0,1,64,28.53c0,1.67-.08,3.35,0,5A23.09,23.09,0,0,1,62.37,43,31.78,31.78,0,0,1,42.91,62.45,30,30,0,0,1,37,64a5.42,5.42,0,0,1-.81.06c-2.69,0-5.38,0-8.08,0a19.47,19.47,0,0,1-5.67-1.2A31.92,31.92,0,0,1,3.2,46.21,30,30,0,0,1,.08,34.69a31.49,31.49,0,0,1,10.16-26,30.92,30.92,0,0,1,18-8.42Zm2.59,59.09a26.78,26.78,0,0,0,27-27,26.82,26.82,0,0,0-27-27.07,27,27,0,1,0-.08,54.05Z"/><path class="cls-1" d="M34.54,37.47q0,3.93,0,7.88a2.27,2.27,0,0,1-1.36,2.21,2.38,2.38,0,0,1-2.59-.31,2.72,2.72,0,0,1-.87-2.31V32.3c0-1,0-2,0-3a2.36,2.36,0,0,1,2.63-2.5,2.7,2.7,0,0,1,2.19,2.85C34.55,32.25,34.54,34.86,34.54,37.47Z"/><path class="cls-1" d="M35.43,20.43a3.35,3.35,0,0,1-3.28,3.34,3.38,3.38,0,0,1-3.34-3.36,3.31,3.31,0,0,1,6.62,0Z"/></g></g></svg>