<svg xmlns="http://www.w3.org/2000/svg" viewBox="0 0 84.23 53.07"><defs><style>.cls-1{fill:none;stroke:#ecac10;stroke-miterlimit:10;stroke-width:2px;}</style></defs><title>Asset 13</title><g id="Layer_2" data-name="Layer 2"><g id="Layer_2-2" data-name="Layer 2"><path class="cls-1" d="M34.85,33.06a11.45,11.45,0,0,1-1.26-.77A3.66,3.66,0,0,1,34.85,33.06Z"/><path class="cls-1" d="M40.24,34.51c20.71-.1,20.7-31.59,0-31.68C19.52,2.92,19.52,34.42,40.24,34.51Z"/><path class="cls-1" d="M25.55,31l.43.51a16.23,16.23,0,0,1-2.3.74A7,7,0,0,1,25.55,31Z"/><path class="cls-1" d="M56.91,31.47l-.84-.38.08-.1A4.4,4.4,0,0,1,56.91,31.47Z"/><path class="cls-1" d="M54.76,34.63c-5.61-2.9-11.26,9.64-24.06.27-6-2.85-9.43,6.37-9.46,11.9A4.85,4.85,0,0,0,26,52.07h29.6C64.6,51,59.44,37.47,54.76,34.63Z"/><path class="cls-1" d="M78.84,16.84c.28,11.46-12.65,19.45-22.77,14.25,6.66-7.54,5.51-20.87-2.22-27.16C63.74-3.55,79.24,4.29,78.84,16.84Z"/><path class="cls-1" d="M83.22,45a4.86,4.86,0,0,1-4.82,5.27H63.74c1.4-4.61,0-10.15-2.33-13.92,7,1.94,11.88-6.14,16.11-3.52A14.79,14.79,0,0,1,83.22,45Z"/><path class="cls-1" d="M21.18,18.67A19.61,19.61,0,0,0,26,31.52C15.89,35.83,4,27.88,4.18,16.84,3.83,4.68,18.43-3.25,28.44,3.43A19.61,19.61,0,0,0,21.18,18.67Z"/><path class="cls-1" d="M17.41,46.8a9,9,0,0,0,.53,3.45C13.53,49.58.38,53,1,45A15,15,0,0,1,6.17,33.15c4.29-2.71,8.47,4.43,14,3.29A19.56,19.56,0,0,0,17.41,46.8Z"/></g></g></svg>