<svg xmlns="http://www.w3.org/2000/svg" viewBox="0 0 48.78 66.53"><defs><style>.cls-1{fill:#ecac10;}</style></defs><title>Asset 12</title><g id="Layer_2" data-name="Layer 2"><g id="Layer_2-2" data-name="Layer 2"><path class="cls-1" d="M6.74,0H9.48c0,.84,0,1.68,0,2.53,0,.33.11.46.45.45q1,0,1.95,0c.34,0,.45-.11.44-.45,0-.84,0-1.69,0-2.53H15.2c0,.82,0,1.65,0,2.47,0,.41.13.51.52.51,1.56,0,3.12,0,4.68,0,4.19,0,8.37,0,12.55,0,.51,0,.69-.11.66-.64-.05-.78,0-1.56,0-2.34h2.86c0,.84,0,1.69,0,2.53,0,.34.11.46.45.45.62,0,1.25,0,1.88,0,.4,0,.53-.12.52-.52,0-.82,0-1.64,0-2.46H42c0,.8.06,1.6,0,2.4,0,.47.16.61.6.58s1,0,1.5,0a4.28,4.28,0,0,1,4.63,4.62c0,2.13,0,4.25,0,6.38v47.9a4.28,4.28,0,0,1-4.48,4.65q-19.92,0-39.83,0a4.4,4.4,0,0,1-2.14-.46A4.42,4.42,0,0,1,0,61.81Q0,34.74,0,7.66a7.87,7.87,0,0,1,0-.84A4.11,4.11,0,0,1,4,3,19.1,19.1,0,0,1,6.11,3c.45,0,.62-.11.6-.58C6.69,1.6,6.73.8,6.74,0ZM2.84,34.71V61.65c0,1.62.41,2,2,2h39c1.66,0,2.08-.42,2.08-2.08V7.84a5.61,5.61,0,0,0,0-.58,1.43,1.43,0,0,0-1.45-1.45c-.65,0-1.3,0-2,0-.37,0-.5.13-.48.5,0,.67,0,1.34,0,2,0,.34-.1.47-.45.46q-.94,0-1.89,0c-.36,0-.5-.1-.48-.48,0-.65,0-1.3,0-1.95,0-.38-.1-.56-.51-.54-.63,0-1.26,0-1.89,0-.33,0-.46.11-.45.45,0,.67,0,1.35,0,2,0,.34-.06.52-.46.5-.65,0-1.3,0-1.95,0-.34,0-.46-.12-.45-.45,0-.55,0-1.09,0-1.63,0-1,.14-.88-.86-.88H18.86c-1.06,0-2.13,0-3.19,0-.36,0-.5.1-.49.48,0,.67,0,1.34,0,2,0,.31-.06.48-.42.47-.68,0-1.35,0-2,0-.31,0-.42-.11-.41-.42,0-.67,0-1.34,0-2,0-.38-.07-.56-.49-.54-.61,0-1.22,0-1.83,0-.39,0-.54.12-.52.52,0,.65,0,1.3,0,2,0,.35-.08.52-.47.5q-.95,0-1.89,0c-.39,0-.47-.16-.46-.5,0-.65,0-1.3,0-1.95,0-.41-.15-.54-.53-.52s-.91,0-1.37,0c-1.55,0-2,.42-2,2Z"/><path class="cls-1" d="M24.46,12.91a12.75,12.75,0,1,1-12.8,12.63A12.76,12.76,0,0,1,24.46,12.91Zm8.65,17.3a9.8,9.8,0,0,0-2.36-12.16,10,10,0,0,0-13,.26,9.8,9.8,0,0,0-2.09,11.88,12,12,0,0,1,4.46-3.28,5.58,5.58,0,0,1,.46-7.43,5.47,5.47,0,0,1,7.25-.33,5.32,5.32,0,0,1,1.94,3.22,5.56,5.56,0,0,1-1.12,4.52,18.42,18.42,0,0,1,2.45,1.42A13.42,13.42,0,0,1,33.11,30.21Zm-8.3,5.33A10,10,0,0,0,30.93,33c.32-.28.44-.47.11-.87a8.71,8.71,0,0,0-3.43-2.61,8.52,8.52,0,0,0-9.82,2.5c-.32.44-.34.67.1,1A10.55,10.55,0,0,0,24.81,35.54ZM24.38,26a2.63,2.63,0,0,0,2.67-2.6,2.67,2.67,0,1,0-5.33,0A2.64,2.64,0,0,0,24.38,26Z"/><path class="cls-1" d="M24.31,45.45H11.57a1.39,1.39,0,0,1-1.45-1.85,1.32,1.32,0,0,1,1.13-.94,4.26,4.26,0,0,1,.71,0H36.81a4,4,0,0,1,.77.05,1.36,1.36,0,0,1,1.15,1.43,1.4,1.4,0,0,1-1.35,1.34c-1.19,0-2.38,0-3.57,0Z"/><path class="cls-1" d="M24.37,56.76H37.12a1.42,1.42,0,0,1,1.53,1.85,1.37,1.37,0,0,1-1.19,1,5.56,5.56,0,0,1-.71,0H12c-1.25,0-1.93-.5-1.94-1.42s.68-1.42,1.92-1.42Z"/><path class="cls-1" d="M24.45,49.7H33a1.38,1.38,0,0,1,1.44,1.8,1.27,1.27,0,0,1-1.1,1,5,5,0,0,1-.78,0H16.15c-.22,0-.44,0-.65,0a1.38,1.38,0,0,1-1.29-1.38,1.36,1.36,0,0,1,1.33-1.4c.87,0,1.74,0,2.6,0Z"/></g></g></svg>