<svg xmlns="http://www.w3.org/2000/svg" viewBox="0 0 86.58 75.79"><defs><style>.cls-1{fill:#fefefd;}.cls-2{fill:#ebac24;}</style></defs><title>Asset 9</title><g id="Layer_2" data-name="Layer 2"><g id="Layer_2-2" data-name="Layer 2"><path class="cls-1" d="M39.38,0l-.15.25a7.67,7.67,0,0,0-2.66,0L36.42,0Z"/><path class="cls-1" d="M.16,0,0,.16Q0,0,.16,0Z"/><path class="cls-2" d="M36.57.25a7.67,7.67,0,0,1,2.66,0,7.89,7.89,0,0,1,6.2,5.32.94.94,0,0,0,1.07.72c1.21,0,2.42,0,3.63,0,1.51,0,2,.57,2.06,2.07,0,1.1-.15,1,1,1A24.79,24.79,0,0,1,58,9.55,7.63,7.63,0,0,1,64.09,17c0,3,0,6.07,0,9.1,0,.22,0,.45,0,.67.1,1-.2,1.49-1,1.65a1.61,1.61,0,0,1-2-1.12,3.85,3.85,0,0,1-.11-1c0-2.79,0-5.57,0-8.36,0-3.23-1.87-5.1-5.1-5.14-1,0-1.92,0-2.88,0-.67,0-.86.16-.87.85a5.13,5.13,0,0,1-3.05,4.84,5.41,5.41,0,0,1-2.38.46q-9,0-18,0c-3.2,0-5.09-1.88-5.14-5.11,0-.49-.12-.69-.65-.67-1.51,0-3,0-4.52.05a4.52,4.52,0,0,0-4.31,4.42c-.05,1.85,0,3.7,0,5.55q0,17.61,0,35.22A4.75,4.75,0,0,0,16.66,63a5.79,5.79,0,0,0,2.66.5H40.49c.77,0,1.54,0,2,.88a.87.87,0,0,1-.27,1.27,2.66,2.66,0,0,1-1.63.58c-7.23,0-14.46,0-21.68,0C14.11,66.2,11,62.9,11,58.13V17.8a7.69,7.69,0,0,1,8-8.11q2,0,4,0c.45,0,.59-.13.6-.58.07-2.64.27-2.82,2.93-2.82,1,0,2,0,3,0a.63.63,0,0,0,.73-.54C31.12,2.57,33.38.87,36.57.25ZM37.7,16.18h1.85c2.44,0,4.89,0,7.33,0a1.64,1.64,0,0,0,1.86-1.87,6.83,6.83,0,0,0-.26-2.84,1.32,1.32,0,0,1,.08-1.08c.33-.62,0-.7-.5-.69-1.11,0-2.22,0-3.33,0-1.87,0-2.3-.39-2.5-2.23a4.56,4.56,0,0,0-4.78-4.26C34.9,3.3,33.25,5,33.11,7.7c-.08,1.48-.63,2-2.14,2-1.26,0-2.52,0-3.77,0-.42,0-.56.13-.56.55,0,1.28,0,2.57,0,3.85,0,1.52.56,2.08,2.11,2.08C31.74,16.19,34.72,16.18,37.7,16.18Z"/><path class="cls-2" d="M66.07,75.79A20.43,20.43,0,1,1,86.58,55.61C86.61,66.62,77.25,75.79,66.07,75.79ZM66.12,38c-9.89-.09-17.36,8.42-17.34,17.29A17.6,17.6,0,0,0,66.14,72.72c9.17,0,17.5-7.64,17.33-17.3C83.31,46.1,75.92,37.89,66.12,38Z"/><path class="cls-2" d="M37.72,28.43H22.26a1.65,1.65,0,0,1-1.4-.52,1.31,1.31,0,0,1-.17-1.51,1.54,1.54,0,0,1,1.23-1c.14,0,.29,0,.44,0H52.84c1.2,0,1.85.42,2,1.31a1.33,1.33,0,0,1-1.32,1.77c-.2,0-.4,0-.59,0Z"/><path class="cls-2" d="M32.94,38H22.14c-1.07,0-1.61-.33-1.88-1.1a1.69,1.69,0,0,1,1.43-2.33,3.2,3.2,0,0,1,.44,0h21.6c1.53,0,2.37,1.09,1.86,2.4a1.71,1.71,0,0,1-1.85,1Z"/><path class="cls-2" d="M29.77,47.52h-7.7c-1.23,0-1.94-.65-1.92-1.74s.7-1.67,1.91-1.67H37.38A1.63,1.63,0,0,1,39.23,46a1.53,1.53,0,0,1-1.62,1.55Z"/><path class="cls-2" d="M63.81,63c-1.55.78-2.37-.41-3.31-1.36-1.57-1.59-3.17-3.17-4.75-4.76a1.64,1.64,0,0,1-.15-2.53,1.68,1.68,0,0,1,2.53.16c1.51,1.49,3,3,4.49,4.5.37.39.56.36.9,0,2.94-3.38,5.91-6.75,8.86-10.12.2-.22.39-.45.6-.66a1.59,1.59,0,0,1,2.26-.09,1.62,1.62,0,0,1,.27,2.26c-.41.57-.9,1.11-1.36,1.65Q69.54,57.3,65,62.6C64.66,62.94,64.39,63.24,63.81,63Z"/></g></g></svg>