<svg xmlns="http://www.w3.org/2000/svg" viewBox="0 0 63.38 63.72"><defs><style>.cls-1{fill:#ebab23;}</style></defs><title>Asset 8</title><g id="Layer_2" data-name="Layer 2"><g id="Layer_2-2" data-name="Layer 2"><path class="cls-1" d="M36.3,0a14.1,14.1,0,0,0,2.13.43,31.21,31.21,0,0,1,16.41,9.1,30,30,0,0,1,8,15.35,31.8,31.8,0,0,1-.16,12.56A30.92,30.92,0,0,1,45.92,59.55a30.24,30.24,0,0,1-9.87,3,29.61,29.61,0,0,1-12.46-.75,25.41,25.41,0,0,1-4.07-1.49,4.35,4.35,0,0,0-3.45-.2c-2.9.95-5.88,1.67-8.85,2.44-1.13.29-2.25.64-3.38,1a3.69,3.69,0,0,1-2.41,0A1.93,1.93,0,0,1,.16,61c1.3-4.23,2.3-8.54,3.52-12.79A3.48,3.48,0,0,0,3.19,45,14.85,14.85,0,0,1,.71,38.69a32.66,32.66,0,0,1,.56-15.87c3.05-10,9.27-17.15,19.13-20.93A31.76,31.76,0,0,1,27.84.12c.14,0,.3,0,.41-.12ZM61,30.77A36.71,36.71,0,0,0,60.51,26,26,26,0,0,0,50.76,9c-6.29-4.92-13.44-7.5-21.58-6.51a34.09,34.09,0,0,0-7.85,1.65,30.1,30.1,0,0,0-11.52,8.1C3.58,19,1.54,26.87,2.82,35.76a27.28,27.28,0,0,0,3,8.88,5.61,5.61,0,0,1,.44,4.72A96.55,96.55,0,0,0,3.47,60.24c-.17.77-.06.88.65.65l.25-.07c3.88-1,7.77-2.1,11.64-3.18a4.72,4.72,0,0,1,3.25.2,29.76,29.76,0,0,0,33.3-6.12A28.77,28.77,0,0,0,61,30.77Z"/><path class="cls-1" d="M32,45.94H17.44a9,9,0,0,1-1.87-.21,3.55,3.55,0,0,1-2.81-3.29c0-.61,0-1.22,0-1.82V22.94a3.77,3.77,0,0,1,1.73-3.53,4.77,4.77,0,0,1,2.47-.61c3.69-.1,7.38-.13,11.06-.29,6.29-.26,12.58-.08,18.87-.12a4.12,4.12,0,0,1,4.43,4.34c0,6.73,0,13.47,0,20.2a3,3,0,0,1-2.43,2.77,8.83,8.83,0,0,1-2.18.24Zm16.5-23.56a5.81,5.81,0,0,1-.95,1c-2.74,2.41-5.48,4.81-8.21,7.23L33,36.28c-.72.64-1.09.67-1.76.12-2.37-1.93-4.75-3.85-7.08-5.84-2.92-2.48-5.73-5.1-8.61-7.62-.14-.13-.27-.39-.52-.26s-.09.35-.09.52q0,9.11,0,18.2c0,1.45.37,1.82,1.82,1.82h30c1.49,0,1.91-.42,1.91-1.91V23.25A1.7,1.7,0,0,0,48.54,22.38ZM31.62,21.07c-4.49,0-9,0-13.47,0-.21,0-.53-.14-.61.14s.25.36.41.5c1.06.92,2.14,1.82,3.19,2.75,3.28,2.93,6.52,5.91,9.9,8.74.65.55.85.55,1.51,0,.88-.75,1.74-1.51,2.6-2.28,3.42-3.05,7-6,10.17-9.25.15-.15.41-.28.34-.49s-.37-.11-.57-.11C40.6,21.06,36.11,21.07,31.62,21.07Z"/></g></g></svg>