<svg xmlns="http://www.w3.org/2000/svg" viewBox="0 0 60.06 37.3"><defs><style>.cls-1{fill:#fff;}</style></defs><title>Asset 3</title><g id="Layer_2" data-name="Layer 2"><g id="Layer_2-2" data-name="Layer 2"><path class="cls-1" d="M24.73,23.42a8.91,8.91,0,0,1-.93-.57A2.82,2.82,0,0,1,24.73,23.42Z"/><path class="cls-1" d="M28.66,24.47c15.12-.07,15.12-23.07,0-23.13S13.53,24.41,28.66,24.47Z"/><path class="cls-1" d="M17.94,21.92c.09.12.2.25.31.37a12.18,12.18,0,0,1-1.68.54A5,5,0,0,1,17.94,21.92Z"/><path class="cls-1" d="M40.83,22.25,40.22,22l.06-.08A3.43,3.43,0,0,1,40.83,22.25Z"/><path class="cls-1" d="M39.27,24.57c-4.1-2.12-8.23,7-17.58.19-4.39-2.08-6.88,4.65-6.91,8.69a3.53,3.53,0,0,0,3.51,3.85H39.91C46.45,36.49,42.68,26.64,39.27,24.57Z"/><path class="cls-1" d="M56.85,11.57c.21,8.37-9.24,14.2-16.63,10.41,4.87-5.51,4-15.24-1.62-19.84C45.82-3.32,57.14,2.4,56.85,11.57Z"/><path class="cls-1" d="M60.05,32.13A3.54,3.54,0,0,1,56.54,36H45.82c1-3.37,0-7.42-1.69-10.17,5.12,1.41,8.67-4.49,11.76-2.58A10.82,10.82,0,0,1,60.05,32.13Z"/><path class="cls-1" d="M14.74,12.9a14.25,14.25,0,0,0,3.51,9.39C10.87,25.44,2.16,19.63,2.33,11.57,2.06,2.69,12.73-3.1,20,1.78A14.32,14.32,0,0,0,14.74,12.9Z"/><path class="cls-1" d="M12,33.45A6.49,6.49,0,0,0,12.38,36C9.15,35.48-.46,38,0,32.13a10.92,10.92,0,0,1,3.75-8.64c3.14-2,6.2,3.23,10.23,2.39A14.29,14.29,0,0,0,12,33.45Z"/></g></g></svg>