<svg xmlns="http://www.w3.org/2000/svg" viewBox="0 0 57.2 78"><defs><style>.cls-1{fill:#fff;}</style></defs><title>Asset 4</title><g id="Layer_2" data-name="Layer 2"><g id="Layer_2-2" data-name="Layer 2"><path class="cls-1" d="M7.91,0h3.2c0,1,0,2,0,3,0,.4.13.54.53.53q1.14,0,2.28,0c.4,0,.53-.13.52-.52,0-1,0-2,0-3h3.36c0,1,0,1.93,0,2.9,0,.47.15.6.61.59,1.83,0,3.66,0,5.49,0,4.9,0,9.81,0,14.71,0,.59,0,.81-.14.77-.76-.05-.91,0-1.83,0-2.74h3.36c0,1,0,2,0,3,0,.39.13.54.53.52.73,0,1.47,0,2.2,0,.47,0,.62-.14.61-.6,0-1,0-1.93,0-2.89h3.21c0,.94.06,1.88,0,2.82,0,.55.19.71.71.67s1.17,0,1.75,0c3.38,0,5.43,2.05,5.43,5.42,0,2.49,0,5,0,7.48q0,28.08,0,56.16c0,3.3-2,5.45-5.25,5.45H5.24a5.09,5.09,0,0,1-2.51-.55,5.17,5.17,0,0,1-2.73-5Q0,40.73,0,9c0-.33,0-.66,0-1A4.82,4.82,0,0,1,4.65,3.52a23.54,23.54,0,0,1,2.52,0c.52,0,.72-.12.7-.67C7.84,1.88,7.89.94,7.91,0ZM3.33,40.69v31.6c0,1.89.48,2.37,2.4,2.37H51.44c1.94,0,2.43-.49,2.43-2.43v-63c0-.23,0-.46,0-.68a1.68,1.68,0,0,0-1.7-1.7c-.76,0-1.53,0-2.29,0-.43,0-.58.15-.57.58,0,.79,0,1.58,0,2.37,0,.39-.11.54-.52.53-.74,0-1.48,0-2.21,0-.43,0-.59-.12-.57-.56,0-.76,0-1.52,0-2.29,0-.44-.11-.65-.6-.63-.73,0-1.47,0-2.21,0-.39,0-.54.13-.52.53,0,.78,0,1.57,0,2.36,0,.4-.07.61-.54.59-.76,0-1.52,0-2.29,0-.39,0-.53-.14-.52-.53,0-.64,0-1.27,0-1.91,0-1.12.16-1-1-1H22.11c-1.24,0-2.49,0-3.74,0-.42,0-.59.12-.57.56,0,.79,0,1.58,0,2.37,0,.37-.07.56-.5.55-.78,0-1.57,0-2.36,0-.37,0-.49-.13-.48-.49,0-.79,0-1.58,0-2.36,0-.44-.08-.66-.58-.63-.71,0-1.42,0-2.14,0-.45,0-.63.14-.61.61,0,.76,0,1.53,0,2.29,0,.41-.09.6-.55.58-.74,0-1.48,0-2.21,0-.46,0-.56-.18-.55-.59,0-.76,0-1.52,0-2.28,0-.48-.17-.63-.63-.61s-1.07,0-1.6,0c-1.82,0-2.31.49-2.31,2.3Z"/><path class="cls-1" d="M28.68,15.14A14.94,14.94,0,1,1,13.67,30,15,15,0,0,1,28.68,15.14ZM38.83,35.42a11.52,11.52,0,0,0-2.78-14.26,11.75,11.75,0,0,0-15.25.3A11.5,11.5,0,0,0,18.35,35.4a13.92,13.92,0,0,1,5.23-3.85,6.53,6.53,0,0,1,.54-8.71,6.41,6.41,0,0,1,8.5-.38,6.18,6.18,0,0,1,2.27,3.77,6.45,6.45,0,0,1-1.31,5.29,22.43,22.43,0,0,1,2.87,1.67A15.69,15.69,0,0,1,38.83,35.42Zm-9.74,6.25a11.72,11.72,0,0,0,7.17-2.93c.38-.33.52-.55.13-1a10.24,10.24,0,0,0-4-3.05,10,10,0,0,0-11.51,2.93c-.38.51-.4.79.11,1.22A12.33,12.33,0,0,0,29.09,41.67Zm-.51-11.14a3.08,3.08,0,0,0,3.13-3.05,3.13,3.13,0,1,0-3.13,3.05Z"/><path class="cls-1" d="M28.51,53.28H13.56a1.63,1.63,0,0,1-1.7-2.17A1.57,1.57,0,0,1,13.19,50,5.9,5.9,0,0,1,14,50H43.15a4.54,4.54,0,0,1,.91.06,1.63,1.63,0,0,1-.23,3.24c-1.4,0-2.79,0-4.19,0Z"/><path class="cls-1" d="M28.58,66.55H43.52a1.67,1.67,0,0,1,1.8,2.17,1.62,1.62,0,0,1-1.4,1.14,5.75,5.75,0,0,1-.83,0H14c-1.46,0-2.26-.59-2.27-1.66s.8-1.67,2.25-1.67Z"/><path class="cls-1" d="M28.67,58.28H38.73a1.62,1.62,0,0,1,1.7,2.12,1.48,1.48,0,0,1-1.29,1.13,5.55,5.55,0,0,1-.91,0H18.93a6.49,6.49,0,0,1-.76,0,1.63,1.63,0,0,1,0-3.26c1,0,2,0,3.05,0Z"/></g></g></svg>