<svg xmlns="http://www.w3.org/2000/svg" viewBox="0 0 856.03 738.28"><defs><style>.cls-1{isolation:isolate;}.cls-2{fill:#e5e5e5;}.cls-3{fill:#f9cbcb;}.cls-4{fill:#ebb0b0;}.cls-5{fill:#754c24;}.cls-6{fill:#1366a0;}.cls-7{fill:#646a6c;}.cls-8{fill:#083750;}.cls-9{fill:#838889;}.cls-10{mix-blend-mode:multiply;}.cls-11{fill:#ccc;}.cls-12{fill:#e1ba36;}.cls-13{fill:#fff;}.cls-14{fill:#ededed;}.cls-15{fill:#d8d8d8;}.cls-16{fill:#d1d1d1;}.cls-17{opacity:0.11;}</style></defs><title>Asset 1</title><g class="cls-1"><g id="Layer_2" data-name="Layer 2"><g id="Layer_2-2" data-name="Layer 2"><path class="cls-2" d="M216.65,689.82a66,66,0,0,0-13.55-.25c1.43,19.46-28.47,3.87-39.24,23.15,6.19-13.5,21.82-41.28,38.38-25.13a67.85,67.85,0,0,1,10.08-.22q-10.45-6.06-20.36-13.14a74.86,74.86,0,0,0-15.33-.39c1.48,19.47-28.47,3.88-39.23,23.16,6.19-13.5,21.82-41.27,38.38-25.12a66.81,66.81,0,0,1,13,0q-9.35-6.9-18.13-14.67a66.22,66.22,0,0,0-15-.42c1.48,19.48-28.46,3.89-39.22,23.17,6.18-13.51,21.81-41.28,38.38-25.13a67.6,67.6,0,0,1,13.19,0c-8.54-7.69-15.33-17.72-27.74-18.69C137,655.41,112,631.72,97,647.3c9.32-11.72,31.32-33.47,42.92-13.3A67.65,67.65,0,0,1,150,636.8c-10.22-10.09-16.38-25.26-31.37-29.07-5.6,18.61-27.5-8.62-44.19,4.57,7.76-8.62,17.61-18,30-17,5.25.53,12.95,3.11,14.15,10.24a69.06,69.06,0,0,1,10.1,4.54q-7.52-10.65-14.1-22a75.68,75.68,0,0,0-13.42-7.61c-6.41,18.3-27.07-10.1-44.32,2.17,8.2-8.1,18.44-17,30.67-15.36,5.21.81,12.78,3.81,13.66,11a70.73,70.73,0,0,1,11.11,5.87c-7.46-12.6-8.94-19.72-17.35-33.43C80.33,559.83,78,525.3,57.66,525.1c15.55-1.8,43.85,1,39,23.1,5.26,8,8.49,17.21,13,25.6a88.86,88.86,0,0,1,.49-12.1c-6.37-3.82-5.26-13-3.38-18.62,4.22-12,16.2-18.21,27.3-22.54-18.14,10.76-4.71,42.2-22.12,41.83-3.54,14.89,5.9,26.7,13.5,38.5a89.55,89.55,0,0,1,.32-14.92c-5.39-4.17-4.31-13-2.55-18.48,4-12.07,15.5-18.5,26.47-23-17.57,10.79-4.66,44.77-22.18,42.45-.69,5.58-.27,11.27-.15,16.85a262.56,262.56,0,0,0,16.37,21.69,90.67,90.67,0,0,1,.37-13.89c-5.37-4.17-4.29-13-2.54-18.47,4-12.08,15.51-18.5,26.48-23-17.58,10.81-4.66,44.74-22.16,42.46a85.31,85.31,0,0,0-.13,15.33q8.38,9.9,17.62,18.87a89.71,89.71,0,0,1,.29-15.29c-5.38-4.17-4.3-13-2.55-18.48,4-12.08,15.5-18.5,26.47-23-17.57,10.79-4.66,44.77-22.17,42.45-3.38,18.69,4.81,20.73,17.48,31.52a89.14,89.14,0,0,1,.27-15.5c-5.3-4.12-4.24-12.81-2.51-18.22,4-11.91,15.3-18.26,26.12-22.69-17.34,10.66-4.6,44.14-21.87,41.89a87.56,87.56,0,0,0-.06,16.11c6,4.67,12.17,9,18.51,13.12a90.61,90.61,0,0,1,.31-15c-5.38-4.17-4.3-13-2.55-18.48,4-12.08,15.5-18.5,26.47-23C210,633,222.91,666.94,205.41,664.67a86.73,86.73,0,0,0-.13,15.29,242.48,242.48,0,0,0,104.43,36.63c1.59.17,1.44,2.91-.16,2.74A244,244,0,0,1,216.65,689.82Z"/><path class="cls-2" d="M595.2,588.64a66.59,66.59,0,0,0-.48-13.54c-19.35,2.46-5.37-28.22-25.2-38,13.82,5.46,42.38,19.59,27.13,37a66.29,66.29,0,0,1,.76,10.05q5.51-10.76,12.05-21a75.43,75.43,0,0,0-.43-15.32c-19.37,2.51-5.39-28.22-25.22-37.94,13.82,5.46,42.38,19.59,27.13,37a66.63,66.63,0,0,1,.69,12.94q6.39-9.69,13.68-18.88a65.54,65.54,0,0,0-.37-15c-19.37,2.51-5.39-28.22-25.22-37.94,13.81,5.46,42.38,19.59,27.13,37a67.47,67.47,0,0,1,.67,13.18c7.23-8.94,16.88-16.26,17.19-28.7-19.39-2.25,2.94-28.44-13.41-42.62,12.2,8.69,35.08,29.5,15.56,42.16a68.26,68.26,0,0,1-2.26,10.21c9.53-10.75,24.35-17.7,27.36-32.87-18.87-4.6,7.15-27.92-6.91-43.89,9,7.3,18.88,16.63,18.57,29-.25,5.27-2.42,13.09-9.47,14.67a70.2,70.2,0,0,1-4,10.33q10.23-8.07,21.26-15.26a75.28,75.28,0,0,0,6.88-13.8c-18.61-5.43,8.65-27.57-4.52-44.14,8.52,7.75,17.92,17.52,17,29.81-.53,5.25-3.13,13-10.26,14.23a69.51,69.51,0,0,1-5.28,11.4c12.19-8.11,19.23-10,32.47-19.1-9.91-14.07,24.45-18.24,23.57-38.55,2.62,15.44,1.34,43.85-21,40.16-7.69,5.67-16.73,9.39-24.88,14.35a89.17,89.17,0,0,1,12.12-.16c3.47-6.56,12.72-5.94,18.41-4.36,12.23,3.57,19,15.21,24,26.07-11.71-17.54-42.39-2.47-43-19.87-15.06-2.74-26.34,7.31-37.73,15.52a90.74,90.74,0,0,1,14.92-.47c3.87-5.6,12.74-5,18.32-3.53,12.27,3.37,19.3,14.5,24.36,25.21-11.71-17-44.95-2.28-43.57-19.88-5.61-.4-11.26.32-16.83.73a267.88,267.88,0,0,0-20.79,17.5,92.1,92.1,0,0,1,13.89-.36c3.88-5.59,12.73-5,18.31-3.52,12.27,3.37,19.3,14.5,24.37,25.22-11.72-17-44.92-2.28-43.58-19.88a86.21,86.21,0,0,0-15.31.69q-9.43,8.91-17.9,18.6a89.66,89.66,0,0,1,15.27-.52c3.88-5.6,12.75-5,18.33-3.53,12.27,3.37,19.3,14.5,24.36,25.21-11.71-17-45-2.27-43.57-19.88-18.84-2.39-20.44,5.91-30.55,19.13a89.29,89.29,0,0,1,15.5-.56c3.83-5.51,12.56-4.91,18.06-3.47,12.11,3.32,19,14.3,24,24.87-11.43-16.7-44.32-2.26-43-19.6a86.71,86.71,0,0,0-16.09.79q-6.53,9.33-12.11,19.18a89.58,89.58,0,0,1,15-.48c3.88-5.6,12.74-5,18.32-3.54,12.27,3.37,19.3,14.5,24.37,25.22-11.72-17-44.93-2.28-43.58-19.87a84.94,84.94,0,0,0-15.28.68,242.43,242.43,0,0,0-31,106.22c-.08,1.61-2.83,1.6-2.75,0A243.91,243.91,0,0,1,595.2,588.64Z"/><polygon class="cls-2" points="580.68 701.01 572.85 694.59 585.28 687.07 593.2 693.15 593.64 692.54 585.98 686.65 598.18 679.28 606.31 685.52 606.75 684.91 598.87 678.86 612.05 670.89 620.6 679.36 621.12 678.8 612.72 670.49 624.53 663.35 624.29 663.69 632.03 669.45 632.46 668.83 624.85 663.16 634.87 657.1 634.84 657.15 642.57 662.91 643 662.29 635.51 656.71 647.93 649.21 655.3 654.69 655.73 654.07 648.63 648.78 661.83 640.81 669.47 646.5 669.9 645.88 662.52 640.39 678.42 630.79 686.02 636.45 686.45 635.82 679.12 630.37 693.44 621.7 701.01 627.34 701.44 626.72 694.14 621.28 708.27 612.75 715.98 618.48 716.41 617.86 708.97 612.32 719.16 606.17 724.62 609.94 725.03 609.3 719.87 605.74 732.52 598.09 736.55 601.03 736.98 600.41 733.23 597.66 744.59 590.79 749.19 593.82 749.59 593.17 745.31 590.36 757 583.3 760.96 586.2 761.39 585.58 757.7 582.87 769.64 575.65 772.97 577.88 773.37 577.24 770.36 575.22 779.37 569.78 784.61 571.26 784.8 570.52 780.26 569.24 789.21 563.83 793.44 565.02 793.63 564.28 790.11 563.29 797.6 558.76 801.29 559.97 801.52 559.24 798.46 558.24 807.61 552.71 806.85 551.39 797.7 556.92 798.35 553.59 797.62 553.44 796.84 557.44 789.38 561.95 790.25 558.26 789.52 558.08 788.49 562.49 779.57 567.88 780.67 563.2 779.95 563.02 778.68 568.41 769.68 573.85 769.43 570.25 768.69 570.31 768.97 574.28 757.04 581.49 756.55 577.02 755.82 577.11 756.34 581.91 744.92 588.82 744.38 583.97 743.64 584.05 744.22 589.23 744.24 589.23 732.62 596.25 732.14 591.85 731.4 591.94 731.92 596.67 719.3 604.3 718.8 598.32 718.06 598.38 718.59 604.73 708.41 610.88 707.36 601.95 706.62 602.03 707.71 611.31 693.62 619.82 692.59 611.15 691.86 611.24 692.92 620.25 678.62 628.89 677.6 620.26 676.86 620.35 677.92 629.31 662.06 638.89 661.05 630.32 660.31 630.41 661.36 639.32 648.2 647.27 647.24 639.13 646.5 639.21 647.5 647.7 635.1 655.18 634.09 646.62 633.36 646.71 634.4 655.61 624.46 661.62 623.44 652.96 622.7 653.05 623.76 662.04 612.23 669.01 609.47 658.36 608.75 658.55 611.56 669.41 598.52 677.29 597.33 668.36 596.6 668.46 597.83 677.71 585.65 685.07 584.51 676.48 583.77 676.58 584.96 685.49 572.25 693.17 571.04 684.08 570.31 684.18 571.55 693.59 509.63 731.01 510.38 732.34 572.16 695 580.22 701.61 580.68 701.01"/><path class="cls-2" d="M797.38,554.92c-3.55-3.73-.34-27.71,6.53-31.89C800.55,529.83,802.45,551.48,797.38,554.92Z"/><path class="cls-2" d="M802.54,551.11c-2.84-4.32,4.47-27.32,12-30.16C810,527,808.13,548.66,802.54,551.11Z"/><path class="cls-2" d="M806,552.16c-1.31-5,13-24.24,20.95-24.37C820.73,532,812,551.76,806,552.16Z"/><path class="cls-2" d="M789.66,559.06c-4.1-4.31-.39-32,7.55-36.86C793.32,530.06,795.52,555.08,789.66,559.06Z"/><path class="cls-2" d="M780.17,563.73c-4.51-4.73-.43-35.22,8.3-40.52C784.19,531.85,786.61,559.36,780.17,563.73Z"/><path class="cls-2" d="M769,570.54c-5.07-5.33-.48-39.66,9.35-45.64C773.5,534.63,776.22,565.62,769,570.54Z"/><path class="cls-2" d="M756.37,578.19c-5.6-5.88-.54-43.74,10.31-50.32C761.37,538.59,764.37,572.76,756.37,578.19Z"/><path class="cls-2" d="M744.07,586c-5.88-6.17-.57-45.91,10.82-52.82C749.31,544.39,752.47,580.26,744.07,586Z"/><path class="cls-2" d="M731.63,593.51c-5.87-6.17-.56-45.91,10.82-52.83C736.88,551.94,740,587.81,731.63,593.51Z"/><path class="cls-2" d="M718.35,599.6c-6.48-6.82-.62-50.69,11.95-58.33C724.15,553.71,727.63,593.31,718.35,599.6Z"/><path class="cls-2" d="M707,602.52c-6.49-6.81-.62-50.69,12-58.32C712.82,556.63,716.3,596.23,707,602.52Z"/><path class="cls-2" d="M623.35,654.06c-8.74-3.14-25-49.77-17.05-62.38C606.15,605.65,628.94,644.16,623.35,654.06Z"/><path class="cls-2" d="M609.61,659.32c-8.75-3.14-23.36-46.35-15.4-59C594.06,614.33,615.19,649.43,609.61,659.32Z"/><path class="cls-2" d="M597.29,669.89c-8.74-3.14-23.92-47.34-16-60C581.18,623.91,602.88,660,597.29,669.89Z"/><path class="cls-2" d="M584.62,679.83c-8.74-3.13-23.56-46.71-15.61-59.32C568.87,634.48,590.21,669.94,584.62,679.83Z"/><path class="cls-2" d="M571.14,688.87c-8.74-3.14-22.4-45.18-14.44-57.79C556.55,645.05,576.73,679,571.14,688.87Z"/><path class="cls-2" d="M692.45,616.29c-7.67-8.06-.74-59.93,14.12-68.95C699.3,562,703.41,608.85,692.45,616.29Z"/><path class="cls-2" d="M660.72,633.79c-8.2-7.48-3.06-62.24,11.14-72.33C665.61,576.66,671.14,625.58,660.72,633.79Z"/><path class="cls-2" d="M677.23,621.89c-8.13-7.73-3.64-60.45,10.92-70.32C681.52,566.78,687.93,613.82,677.23,621.89Z"/><path class="cls-2" d="M646.7,640.44c-9.07-6.53-9.24-64.41,3.88-76.23C646,580.21,656.24,631,646.7,640.44Z"/><path class="cls-2" d="M634.11,649.76c-9.56-5.73-16.27-58.22-4.14-71.13C626.7,595,642.86,639.49,634.11,649.76Z"/><path class="cls-2" d="M799.86,559.25c1.45,5,23.39,13.72,30.26,9.54C822.71,568.54,805.24,556.35,799.86,559.25Z"/><path class="cls-2" d="M805.5,555.64c2.15,4.72,25.08,10,31.28,4.84C829.42,561.35,810.4,551.94,805.5,555.64Z"/><path class="cls-2" d="M806.45,553.73c3.6,3.67,26.87.45,30.94-6.62C830.79,550.56,809.8,548.51,806.45,553.73Z"/><path class="cls-2" d="M807.23,552.05c4.64,2.08,25.16-9.66,26.45-17.78C828.75,540,808.51,545.93,807.23,552.05Z"/><path class="cls-2" d="M792.3,564.32c1.67,5.78,27,15.86,35,11C818.71,575.05,798.51,561,792.3,564.32Z"/><path class="cls-2" d="M784.2,570.77c1.84,6.36,29.72,17.43,38.45,12.13C813.24,582.57,791,567.08,784.2,570.77Z"/><path class="cls-2" d="M773,577.58c2.07,7.16,33.46,19.63,43.3,13.66C805.7,590.87,780.69,573.42,773,577.58Z"/><path class="cls-2" d="M760.5,585.4c2.29,7.89,36.9,21.65,47.75,15.06C796.56,600.05,769,580.82,760.5,585.4Z"/><path class="cls-2" d="M747.17,592.08c2.4,8.28,38.73,22.72,50.12,15.81C785,607.46,756.07,587.26,747.17,592.08Z"/><path class="cls-2" d="M734.63,599.25c2.4,8.28,38.74,22.72,50.13,15.8C772.49,614.63,743.54,594.43,734.63,599.25Z"/><path class="cls-2" d="M723,607.77c2.65,9.15,42.77,25.08,55.34,17.45C764.83,624.75,732.87,602.45,723,607.77Z"/><path class="cls-2" d="M715.07,616.57c2.65,9.14,42.77,25.09,55.33,17.45C756.86,633.55,724.9,611.25,715.07,616.57Z"/><path class="cls-2" d="M630.8,667.06c-1.57,9.39,30.19,46.62,44.75,45.55C663.61,706,641.9,666.81,630.8,667.06Z"/><path class="cls-2" d="M619.35,677.42c-1.57,9.4,28.41,43,43,41.89C650.38,712.68,630.46,677.17,619.35,677.42Z"/><path class="cls-2" d="M604.55,683.94c-1.56,9.39,28.66,44.46,43.22,43.4C635.83,720.71,615.66,683.69,604.55,683.94Z"/><path class="cls-2" d="M590.15,689.5c-1.56,9.4,28.3,43.84,42.86,42.77C621.07,725.64,601.26,689.25,590.15,689.5Z"/><path class="cls-2" d="M576,697.28c-1.57,9.4,27.55,42,42.11,41C606.13,731.63,587.07,697,576,697.28Z"/><path class="cls-2" d="M696.32,623c3.13,10.82,50.56,29.66,65.42,20.64C745.73,643.12,707.94,616.76,696.32,623Z"/><path class="cls-2" d="M666.09,643.18c2.39,11,51.41,32.87,66.85,25C717,666.41,678.12,637.75,666.09,643.18Z"/><path class="cls-2" d="M684.19,634.05c2.64,11.07,49.6,32.53,65,24.18C733.1,656.85,696.23,628.31,684.19,634.05Z"/><path class="cls-2" d="M653.66,652.6c1.16,11.33,50.26,39.49,66.66,33.38C704.51,682.35,666.34,648.6,653.66,652.6Z"/><path class="cls-2" d="M639.65,659.43c.25,11.39,41.6,42.84,58.43,38.16C682.62,692.62,652.61,656.52,639.65,659.43Z"/><polygon class="cls-2" points="327.81 643.78 322.31 652.28 313.44 640.77 318.59 632.23 317.93 631.86 312.94 640.13 304.24 628.84 309.53 620.06 308.87 619.69 303.75 628.2 294.35 616 301.79 606.55 301.19 606.1 293.87 615.38 285.44 604.45 285.81 604.65 290.66 596.32 289.99 595.96 285.22 604.16 278.07 594.89 278.12 594.92 282.97 586.58 282.31 586.22 277.61 594.29 268.75 582.8 273.37 574.86 272.7 574.5 268.25 582.15 258.85 569.94 263.63 561.71 262.97 561.35 258.35 569.29 247.01 554.59 251.78 546.39 251.11 546.03 246.51 553.94 236.29 540.68 241.04 532.52 240.37 532.16 235.79 540.03 225.72 526.96 230.55 518.65 229.89 518.29 225.22 526.31 217.96 516.88 221.09 511.03 220.41 510.69 217.45 516.22 208.42 504.51 210.89 500.18 210.22 499.82 207.92 503.86 199.81 493.34 202.3 488.43 201.62 488.11 199.3 492.68 190.97 481.86 193.4 477.59 192.73 477.24 190.47 481.21 181.95 470.16 183.78 466.6 183.1 466.27 181.44 469.49 175.01 461.16 175.89 455.78 175.13 455.67 174.37 460.33 167.99 452.04 168.69 447.71 167.94 447.6 167.35 451.22 162.01 444.29 162.79 440.48 162.04 440.34 161.39 443.49 154.87 435.02 153.64 435.92 160.17 444.39 156.79 444.12 156.72 444.87 160.78 445.19 166.1 452.09 162.34 451.64 162.24 452.38 166.74 452.92 173.1 461.17 168.33 460.6 168.23 461.34 173.73 461.99 180.15 470.32 176.6 470.97 176.74 471.7 180.66 470.98 189.17 482.02 184.78 483.01 184.94 483.73 189.66 482.67 197.81 493.24 193.05 494.32 193.22 495.04 198.31 493.89 198.3 493.87 206.58 504.62 202.27 505.6 202.44 506.32 207.08 505.27 216.09 516.95 210.19 518.12 210.34 518.85 216.59 517.61 223.85 527.03 215.09 529.08 215.26 529.8 224.35 527.67 234.41 540.72 225.91 542.71 226.08 543.43 234.9 541.37 245.1 554.6 236.65 556.58 236.82 557.3 245.6 555.25 256.91 569.92 248.5 571.89 248.67 572.62 257.41 570.57 266.8 582.75 258.81 584.63 258.99 585.35 267.3 583.4 276.14 594.87 267.74 596.84 267.92 597.56 276.64 595.52 283.73 604.72 275.24 606.71 275.41 607.43 284.23 605.37 292.45 616.04 282.18 619.98 282.46 620.67 292.93 616.66 302.23 628.73 293.48 630.92 293.67 631.64 302.73 629.37 311.41 640.64 303 642.74 303.19 643.46 311.9 641.28 320.97 653.04 312.07 655.27 312.26 655.99 321.46 653.68 365.63 711 366.86 710.1 322.8 652.92 328.45 644.17 327.81 643.78"/><path class="cls-2" d="M158.21,444.93c-3.3,3.95-27.49,3.47-32.42-2.89C132.93,444.62,154.23,440.28,158.21,444.93Z"/><path class="cls-2" d="M153.84,440.24c-4,3.31-27.64-1.37-31.31-8.49C129.07,435.53,150.78,435,153.84,440.24Z"/><path class="cls-2" d="M154.51,436.71c-4.86,1.87-25.55-10.15-26.58-18.06C132.79,424.32,153.42,430.73,154.51,436.71Z"/><path class="cls-2" d="M163.2,452.14c-3.82,4.56-31.79,4-37.48-3.35C134,451.77,158.59,446.76,163.2,452.14Z"/><path class="cls-2" d="M168.91,461c-4.2,5-34.94,4.4-41.2-3.68C136.77,460.64,163.84,455.13,168.91,461Z"/><path class="cls-2" d="M176.94,471.41c-4.73,5.64-39.36,4.95-46.4-4.14C140.75,471,171.23,464.75,176.94,471.41Z"/><path class="cls-2" d="M186,483.06c-5.21,6.23-43.4,5.47-51.16-4.57C146.05,482.56,179.67,475.72,186,483.06Z"/><path class="cls-2" d="M195.06,494.41c-5.47,6.53-45.55,5.74-53.71-4.8C153.17,493.88,188.46,486.7,195.06,494.41Z"/><path class="cls-2" d="M204,505.91c-5.47,6.54-45.55,5.74-53.71-4.79C162.08,505.38,197.36,498.21,204,505.91Z"/><path class="cls-2" d="M211.52,518.42c-6,7.22-50.3,6.33-59.3-5.29C165.27,517.84,204.22,509.91,211.52,518.42Z"/><path class="cls-2" d="M215.7,529.35c-6,7.21-50.29,6.33-59.3-5.3C169.45,528.77,208.4,520.84,215.7,529.35Z"/><path class="cls-2" d="M276.34,606.67c-2.13,9-46.63,30.47-60.06,24C230.18,629.22,265.88,602.24,276.34,606.67Z"/><path class="cls-2" d="M283.12,619.74c-2.13,9-43.42,28.43-56.85,22C240.17,640.26,272.66,615.3,283.12,619.74Z"/><path class="cls-2" d="M295,630.78c-2.13,9-44.34,29.11-57.77,22.63C251.14,652,284.55,626.35,295,630.78Z"/><path class="cls-2" d="M306.32,642.25c-2.13,9-43.76,28.68-57.19,22.2C263,663,295.86,637.82,306.32,642.25Z"/><path class="cls-2" d="M316.82,654.63c-2.13,9-42.37,27.34-55.79,20.86C274.93,674.06,306.36,650.19,316.82,654.63Z"/><path class="cls-2" d="M231,542.28c-7.13,8.53-59.46,7.49-70.1-6.26C176.34,541.59,222.4,532.22,231,542.28Z"/><path class="cls-2" d="M252,571.83c-6.5,9-61.5,10.06-73.12-2.92C194.67,573.41,242.66,562.4,252,571.83Z"/><path class="cls-2" d="M238.31,556.77c-6.77,9-59.65,10.43-71.11-2.92C183.06,558.72,229.09,547,238.31,556.77Z"/><path class="cls-2" d="M260.18,585c-5.46,9.75-63,16.44-76.18,4.74C200.41,592.48,249.67,576.61,260.18,585Z"/><path class="cls-2" d="M270.86,596.47c-4.62,10.14-56,22.73-70.21,12.14C217.26,610,259.67,588.93,270.86,596.47Z"/><path class="cls-2" d="M162.24,442c4.81-2,11-24.78,6.07-31.14C168.89,418.23,158.75,437,162.24,442Z"/><path class="cls-2" d="M158,436.79c4.45-2.67,7.13-26.05,1.29-31.63C161,412.37,153.79,432.33,158,436.79Z"/><path class="cls-2" d="M156,436.06c3.24-4-2.58-26.75-10.07-30C150.11,412.23,150.45,433.31,156,436.06Z"/><path class="cls-2" d="M154.25,435.47c1.54-4.85-12.43-23.91-20.65-24.28C139.81,415.45,148,434.89,154.25,435.47Z"/><path class="cls-2" d="M168.13,448.93c5.56-2.32,12.71-28.65,7-36C175.82,421.47,164.09,443.13,168.13,448.93Z"/><path class="cls-2" d="M175.46,456.24c6.1-2.55,14-31.49,7.71-39.57C183.9,426.05,171,449.87,175.46,456.24Z"/><path class="cls-2" d="M183.48,466.61c6.88-2.87,15.73-35.47,8.69-44.57C193,432.61,178.48,459.43,183.48,466.61Z"/><path class="cls-2" d="M192.66,478.14C200.24,475,210,439,202.24,429,203.15,440.66,187.15,470.23,192.66,478.14Z"/><path class="cls-2" d="M200.8,490.64c8-3.32,18.21-41.05,10-51.59C211.81,451.29,195,482.33,200.8,490.64Z"/><path class="cls-2" d="M209.33,502.28c8-3.32,18.21-41,10.06-51.58C220.35,462.93,203.55,494,209.33,502.28Z"/><path class="cls-2" d="M219.11,512.85c8.79-3.67,20.1-45.33,11.1-57C231.27,469.4,212.72,503.68,219.11,512.85Z"/><path class="cls-2" d="M228.75,519.77c8.79-3.67,20.11-45.32,11.1-56.95C240.91,476.33,222.36,510.6,228.75,519.77Z"/><path class="cls-2" d="M288.42,597.81c9.51.5,42.92-35.25,40.22-49.6C323.4,560.82,286.92,586.8,288.42,597.81Z"/><path class="cls-2" d="M300,608c9.51.49,39.48-33.08,36.77-47.43C331.55,573.21,298.51,597,300,608Z"/><path class="cls-2" d="M308.15,622c9.52.49,41-33.49,38.25-47.84C341.16,586.76,306.65,611,308.15,622Z"/><path class="cls-2" d="M315.3,635.66c9.52.5,40.37-33.06,37.67-47.41C347.73,600.87,313.8,624.65,315.3,635.66Z"/><path class="cls-2" d="M324.63,648.89c9.52.5,38.67-32.12,36-46.46C355.36,615,323.13,637.88,324.63,648.89Z"/><path class="cls-2" d="M237.3,537.67c10.39-4.33,23.77-53.58,13.12-67.33C251.68,486.31,229.75,526.83,237.3,537.67Z"/><path class="cls-2" d="M260.71,565.43c10.68-3.61,26.87-54.78,17.25-69.24C278.06,512.22,254,554.1,260.71,565.43Z"/><path class="cls-2" d="M249.61,548.48c10.7-3.87,26.72-53,16.69-67.35C266.75,497.32,242.54,537.17,249.61,548.48Z"/><path class="cls-2" d="M271.48,576.72c11.13-2.42,33.57-54.39,25.65-70C295.31,522.85,266.07,564.57,271.48,576.72Z"/><path class="cls-2" d="M279.85,589.87c11.29-1.53,37.87-46.16,31.32-62.36C308,543.44,275.49,577.32,279.85,589.87Z"/><path class="cls-3" d="M461.32,460.52l-32.81,30-38.18-30.73A670.6,670.6,0,0,1,461.32,460.52Z"/><path class="cls-3" d="M462.76,468.77c-21.74,29.32-49.41,38.26-74.24,0,2.36-14.34,9.92-60.16,12.13-73.71l48.82-.32Z"/><path class="cls-4" d="M462.76,468.77c-16.63-17.3-17.88-58.08-65.41-53.6l3.3-20.11,48.82-.32Z"/><path class="cls-3" d="M518.52,294.1c-8.15,151.72-165.81,145.84-176.3,0C344.33,165.39,516.43,165.4,518.52,294.1Z"/><path class="cls-4" d="M430.37,196.23c-1.39,0-2.75.16-4.13.23,115,5.31,102.85,198.14,2.8,211.27C537.94,406.38,553.28,197.17,430.37,196.23Z"/><path class="cls-5" d="M525.76,283.27v.21a.38.38,0,0,0-.11-.32Z"/><path class="cls-6" d="M558.37,225.94s4.68,59.09-45.21,72.12c0-1.19,0-2.42-.06-3.58-18.13-13.61-20-33.16-22.41-46.46-4-27-52.94-3.14-100.84-35.62,3,38.6-28.36,60.22-45.29,75.35,0,0-1.54,10.35-1.13,15.81-20.06-19.15-39.83-104.13,30.21-117,45.42-80.71,148.06,55.29,191.29-24.74,0,0-1.21,60.54-27,70.29C537.91,232.14,552.91,232.74,558.37,225.94Z"/><path class="cls-6" d="M637.46,724.51H222.66s21.6-186.17,40.18-212.16c18.62-23.37,92-43.63,127.49-52.52l38.18,30.73,32.81-30c40.6,4.91,103.09,19.67,125.05,45.33C604.94,531.87,637.46,724.51,637.46,724.51Z"/><path class="cls-7" d="M477,468.22c-11.74,12.92-17.52,26.27-16.54,40.11-7.53-3.43-24.72-11.2-32.41-14.67-8.36,4.16-25.2,12.52-33.54,16.65-5.27-15.15-12.53-28.54-22.19-39.83l13.21-9.34,4.78-1.31,38.18,30.73,32.81-30C462.6,459.6,475.77,467.73,477,468.22Z"/><path class="cls-8" d="M526,284.83h-7.27c17.82-157.62-198.65-157.51-180.78,0h-7.27C312.68,117.66,544.1,117.77,526,284.83Z"/><path class="cls-9" d="M326.57,278.63c-.14-10.07,15.69-10.07,15.54,0C342.26,288.71,326.43,288.71,326.57,278.63Z"/><path class="cls-9" d="M514.63,278.63c-.15-10.07,15.69-10.07,15.54,0C530.31,288.71,514.48,288.71,514.63,278.63Z"/><path class="cls-8" d="M420,377.1l.06,0c-.26-.63-2.3-8.76-2.54-9.66-2.7.44-5.56,1.81-6.3,4.57-42.71,10.83-76.58.46-74.71-43.91l-7.26-.4c-4.15,50.69,43.33,63.67,84.32,51.21,2,1.53,4.73,1.16,7,.4Z"/><g class="cls-10"><path class="cls-6" d="M420,377.1l.06,0c-.26-.63-2.3-8.76-2.54-9.66l-.13,0c.27,1,1.6,6.4,1.92,7.28h-.06l.57,2.2c-2.27.76-5,1.12-7-.41-30.71,8.56-70.31,6.47-81.33-26.62,9.69,35,50.54,37.89,82.08,29,2,1.53,4.73,1.16,7,.4Z"/><path class="cls-11" d="M335.63,328a55.58,55.58,0,0,0,2.74,19.64,59.37,59.37,0,0,1-1.91-19.59Z"/></g><path class="cls-12" d="M303.61,314.34c0,13.66,9.89,24.73,22.09,24.73V289.61C313.5,289.61,303.61,300.68,303.61,314.34Z"/><g class="cls-10"><path class="cls-11" d="M304.48,309h0c0-.62,0-1.23.08-1.84a27.79,27.79,0,0,0-.95,7.19h0c0,13.66,9.89,24.73,22.09,24.73v-5.4C313.91,333.16,304.48,322.32,304.48,309Z"/></g><path class="cls-6" d="M522.07,256.57c-4.71,0-8-4-8-8.63a86.16,86.16,0,0,0-171.6,1.56,7.9,7.9,0,0,1-7.83,7.07,8.05,8.05,0,0,1-7.71-10,101.9,101.9,0,0,1,203,1.79A7.86,7.86,0,0,1,522.07,256.57Z"/><g class="cls-10"><path class="cls-11" d="M422.6,169.13A86.27,86.27,0,0,0,336.75,248a7.92,7.92,0,0,1-6.56,7.19c4.76,3.47,12,.05,12.33-5.91,3.6-49.65,52.1-87.14,101.59-77.39A86.2,86.2,0,0,0,422.6,169.13Z"/><path class="cls-11" d="M529.93,248.12a102.13,102.13,0,0,0-82.43-91.65,102.13,102.13,0,0,1,76.65,90.37,7.84,7.84,0,0,1-6.54,8.33C522.74,259,530.65,254.54,529.93,248.12Z"/></g><path class="cls-6" d="M334.34,280.56A13.38,13.38,0,0,0,321,293.94v40.8a13.38,13.38,0,0,0,26.76,0v-40.8A13.38,13.38,0,0,0,334.34,280.56Z"/><g class="cls-10"><path class="cls-6" d="M337,280.82c4.09,3.62,1.38,42.79,2.11,48a13.41,13.41,0,0,1-16,13.12,13.37,13.37,0,0,0,24.64-7.2v-40.8A13.38,13.38,0,0,0,337,280.82Z"/></g><path class="cls-12" d="M530.13,286.34V335.8C559.16,335.29,559.14,286.84,530.13,286.34Z"/><g class="cls-10"><path class="cls-11" d="M551.35,305.73c0-.62,0-1.23-.08-1.84a27.23,27.23,0,0,1,1,7.18h0c0,13.66-9.89,24.73-22.09,24.73v-5.39C541.93,329.89,551.35,319.06,551.35,305.73Z"/></g><path class="cls-6" d="M521.49,277.29a13.38,13.38,0,0,0-13.38,13.38v40.8a13.38,13.38,0,0,0,26.76,0v-40.8A13.38,13.38,0,0,0,521.49,277.29Z"/><g class="cls-10"><path class="cls-11" d="M518.87,277.55c-4.1,3.63-1.39,42.79-2.12,48a13.42,13.42,0,0,0,16,13.12,13.36,13.36,0,0,1-11.27,6.17c-7.51.25-13.67-6.86-13.38-13.39,0-1.16,0-40.71,0-41.09A13.39,13.39,0,0,1,518.87,277.55Z"/></g><path class="cls-9" d="M441.61,376.63c-7.43,1.27-23.13,9.43-26.09-2.43h0a8.81,8.81,0,0,1,6.36-10.73c7.27-1.25,23.33-9.44,26.09,2.42h0A8.83,8.83,0,0,1,441.61,376.63Z"/><g class="cls-10"><path class="cls-11" d="M448,365.89a8.81,8.81,0,0,0-8.33-6.62c8.17,2.31,7.94,15.08-.53,16.93-1.61.29-16.46,4.55-17.76,4.2,3.37,1.71,16.74-3.27,20.26-3.77A8.83,8.83,0,0,0,448,365.89Z"/></g><g class="cls-10"><path class="cls-11" d="M424.84,368a.73.73,0,0,1,.7,1.29A.73.73,0,0,1,424.84,368Z"/></g><g class="cls-10"><path class="cls-11" d="M428.92,368.75a.73.73,0,0,1,1.45.09A.73.73,0,0,1,428.92,368.75Z"/></g><g class="cls-10"><path class="cls-11" d="M428.8,373.49a.73.73,0,0,1,1.46.1A.73.73,0,0,1,428.8,373.49Z"/></g><g class="cls-10"><path class="cls-11" d="M425.84,371.87a.73.73,0,0,1,.7,1.28A.73.73,0,0,1,425.84,371.87Z"/></g><g class="cls-10"><path class="cls-11" d="M426.73,364.88a.73.73,0,0,1,.7,1.29A.73.73,0,0,1,426.73,364.88Z"/></g><g class="cls-10"><path class="cls-11" d="M431,365.17a.73.73,0,0,1,.69,1.29A.73.73,0,0,1,431,365.17Z"/></g><g class="cls-10"><path class="cls-11" d="M433.1,362.75a.73.73,0,0,1,.69,1.29A.73.73,0,0,1,433.1,362.75Z"/></g><g class="cls-10"><path class="cls-11" d="M436.67,363.81a.73.73,0,0,1,.69,1.28A.73.73,0,0,1,436.67,363.81Z"/></g><g class="cls-10"><path class="cls-11" d="M438.32,361.12a.73.73,0,0,1,.69,1.28A.73.73,0,0,1,438.32,361.12Z"/></g><g class="cls-10"><path class="cls-11" d="M441.62,363.66a.73.73,0,0,1,.69,1.28A.73.73,0,0,1,441.62,363.66Z"/></g><g class="cls-10"><path class="cls-11" d="M440.31,366.47a.73.73,0,0,1,.7,1.29A.73.73,0,0,1,440.31,366.47Z"/></g><g class="cls-10"><path class="cls-11" d="M438.65,370.73a.73.73,0,0,1-.53-1.36A.73.73,0,0,1,438.65,370.73Z"/></g><g class="cls-10"><path class="cls-11" d="M442.39,371.61a.73.73,0,0,1-.52-1.36A.73.73,0,0,1,442.39,371.61Z"/></g><g class="cls-10"><path class="cls-11" d="M436.07,373.4a.73.73,0,0,1-.52-1.36A.73.73,0,0,1,436.07,373.4Z"/></g><g class="cls-10"><path class="cls-11" d="M432.86,369.41a.73.73,0,0,1,.7,1.28A.73.73,0,0,1,432.86,369.41Z"/></g><g class="cls-10"><path class="cls-11" d="M435.46,367.12a.73.73,0,0,1,.7,1.29A.73.73,0,0,1,435.46,367.12Z"/></g><g class="cls-10"><path class="cls-11" d="M418.59,367.64a.73.73,0,0,1,1.45-.2A.73.73,0,0,1,418.59,367.64Z"/></g><g class="cls-10"><path class="cls-11" d="M422,370.49a.73.73,0,0,1,.7,1.29A.73.73,0,0,1,422,370.49Z"/></g><g class="cls-10"><path class="cls-11" d="M421.85,374.38a.73.73,0,0,1,.7,1.28A.73.73,0,0,1,421.85,374.38Z"/></g><g class="cls-10"><path class="cls-11" d="M444.55,368.22a.73.73,0,0,1-.52-1.36A.73.73,0,0,1,444.55,368.22Z"/></g><g class="cls-10"><path class="cls-11" d="M422,365.74a.73.73,0,0,1,.69,1.29A.73.73,0,0,1,422,365.74Z"/></g><g class="cls-10"><path class="cls-11" d="M417.91,370.61a.73.73,0,0,1,.69,1.28A.73.73,0,0,1,417.91,370.61Z"/></g><rect class="cls-13" x="267.67" y="516.98" width="316.09" height="198.61" rx="14.49"/><path class="cls-14" d="M547.83,517c-10,174.87-146,176.92-280.16,170.25.5,8.93-3.36,28.35,10.67,28.36H573.1c5.89,0,10.67-5.13,10.67-11.47V528.45C583.88,511.11,558,518.43,547.83,517Z"/><path class="cls-15" d="M640.51,143.84C546,142.15,546,1.68,640.51,0,735,1.69,735,142.16,640.51,143.84Zm0-138.2c-87.11,1.56-87.1,131,0,132.57C727.62,136.64,727.61,7.19,640.51,5.64Z"/><path class="cls-16" d="M647.84,149.2c-92.05-1.65-92-138.45,0-140.08C739.89,10.77,739.87,147.56,647.84,149.2Zm0-138.21c-89.58,1.61-89.57,134.74,0,136.33C737.42,145.71,737.41,12.59,647.84,11Z"/><path class="cls-16" d="M637.53,151.94c-92-1.65-92-138.45,0-140.08C729.58,13.51,729.57,150.3,637.53,151.94Zm0-138.21c-89.58,1.61-89.56,134.74,0,136.33C727.11,148.45,727.1,15.33,637.53,13.73Z"/><path class="cls-12" d="M634.48,82a10.59,10.59,0,0,1-1.16-.71A3.4,3.4,0,0,1,634.48,82Z"/><path class="cls-12" d="M639.43,83.29c19-.09,19-29,0-29.11C620.4,54.26,620.4,83.2,639.43,83.29Z"/><path class="cls-12" d="M625.94,80.07c.12.16.26.32.39.48a15.23,15.23,0,0,1-2.11.67A6.24,6.24,0,0,1,625.94,80.07Z"/><path class="cls-12" d="M654.75,80.49c-.26-.1-.52-.22-.77-.34l.08-.1A5,5,0,0,1,654.75,80.49Z"/><path class="cls-12" d="M652.78,83.41c-5.16-2.67-10.35,8.85-22.12.24C625.14,81,622,89.5,622,94.59a4.45,4.45,0,0,0,4.42,4.84h27.2C661.82,98.4,657.08,86,652.78,83.41Z"/><path class="cls-12" d="M674.9,67.06c.26,10.53-11.62,17.86-20.92,13.09,6.12-6.93,5.06-19.18-2-25C661,48.31,675.27,55.52,674.9,67.06Z"/><path class="cls-12" d="M678.93,92.92a4.46,4.46,0,0,1-4.42,4.84H661c1.29-4.24,0-9.33-2.14-12.79,6.45,1.77,10.92-5.65,14.81-3.24A13.6,13.6,0,0,1,678.93,92.92Z"/><path class="cls-12" d="M621.92,68.73a18,18,0,0,0,4.41,11.82c-9.28,4-20.24-3.36-20-13.49-.33-11.18,13.09-18.47,22.29-12.33A18,18,0,0,0,621.92,68.73Z"/><path class="cls-12" d="M618.45,94.59a8.43,8.43,0,0,0,.49,3.17c-4.05-.62-16.14,2.5-15.55-4.84a13.72,13.72,0,0,1,4.73-10.87c4-2.49,7.79,4.07,12.87,3A18,18,0,0,0,618.45,94.59Z"/><path class="cls-15" d="M193.31,201.45c-115.91-2.07-115.9-174.33,0-176.39C309.21,27.14,309.2,199.39,193.31,201.45Zm0-169.48c-106.83,1.92-106.82,160.67,0,162.57C300.13,192.63,300.11,33.87,193.31,32Z"/><path class="cls-16" d="M202.29,208c-112.88-2-112.86-169.77,0-171.78C315.17,38.26,315.15,206,202.29,208Zm0-169.48c-109.85,2-109.84,165.23,0,167.18C312.14,203.75,312.13,40.49,202.29,38.54Z"/><path class="cls-16" d="M189.65,211.38c-112.88-2-112.86-169.78,0-171.78C302.53,41.62,302.52,209.38,189.65,211.38Zm0-169.48c-109.85,2-109.83,165.23,0,167.18C299.51,207.11,299.49,43.85,189.65,41.9Z"/><path class="cls-12" d="M176.51,89.72c-25.93-.75-42.9,30.18-28.88,51.64-4.33,3.21-6,10.41-7.54,17.91,15.84-8.58,20.73-3.61,36.42-1.75C221.06,156.76,221.06,90.47,176.51,89.72Z"/><path class="cls-12" d="M245.56,136.79c-12.86-9.54-19.67-5.12-32.51-2,7.45-23-10-48.17-34-49.32,22-40.33,82.27-6.55,59,33.4C243.11,121.92,244.91,128.7,245.56,136.79Z"/><path class="cls-13" d="M158.89,123.13c-.07-4.89,7.61-4.89,7.53,0C166.5,128,158.81,128,158.89,123.13Z"/><path class="cls-13" d="M171.48,123.13c-.08-4.89,7.61-4.89,7.53,0C179.08,128,171.4,128,171.48,123.13Z"/><path class="cls-13" d="M184.07,123.13c-.08-4.89,7.61-4.89,7.53,0C191.67,128,184,128,184.07,123.13Z"/><path class="cls-15" d="M848.36,247.34c-4.14,89.14-138.54,85.32-137.6-3.91C714.9,154.29,849.3,158.12,848.36,247.34Zm-132.21-3.75c-.85,82.24,123,85.74,126.82,3.59C843.82,164.94,720,161.44,716.15,243.59Z"/><path class="cls-16" d="M853.68,240.57c-4,86.82-134.92,83.09-134-3.8C723.7,150,854.59,153.68,853.68,240.57Zm-132.21-3.75C720.6,321.39,848,325,851.88,240.52,852.76,155.94,725.38,152.34,721.47,236.82Z"/><path class="cls-16" d="M856,250.37c-4,86.82-134.92,83.09-134-3.81C726.05,159.75,856.94,163.48,856,250.37Zm-132.21-3.75c-.88,84.57,126.5,88.17,130.41,3.7C855.1,165.74,727.73,162.14,723.82,246.62Z"/><path class="cls-12" d="M777.35,250.91l-4,.06a13.86,13.86,0,0,0-2.11-2.28c-.07-1.21,1.44-4.72-.31-5.33-1.08-.39-3.11-2-4.17-.8-2.5,2.57-2.29,2.85-5.95,2.52-2.37-2.88-2.55-4.67-6.66-2.78-1.81.38-.79,4.06-1,5.24a14,14,0,0,0-2.39,2c-1.23.07-4.94-1.38-5.62.29-2.6,3.8-.52,4.05,2.05,6.59a13.32,13.32,0,0,0-.2,3c-2.85,2.21-5,2.21-2.91,6.31.45,1.75,4.33.76,5.52,1a13.82,13.82,0,0,0,2.11,2.28c0,1.2-1.43,4.72.31,5.33,3.83,2.41,4.26.63,6.94-1.93a14.67,14.67,0,0,0,3.18.2c2.36,2.89,2.55,4.68,6.66,2.79,1.81-.38.79-4.06,1-5.24a14.48,14.48,0,0,0,2.39-2c1.23-.06,4.94,1.39,5.61-.28,2.61-3.8.53-4.05-2-6.6a12.69,12.69,0,0,0,.21-3c.81-.87,4.51-2.33,3.74-4C779.23,253.24,779,250.75,777.35,250.91Zm-12.52,17.26c-12.39,4.3-19.66-14.55-6.68-18.66C770.54,245.2,777.8,264.06,764.83,268.17Z"/><path class="cls-12" d="M754,258.63c-.41,9.26,14.92,9.7,15,.42C769.42,249.78,754.08,249.35,754,258.63Zm11.39.32c-.06,4.77-8,4.55-7.75-.22C757.67,254,765.57,254.18,765.36,259Z"/><path class="cls-12" d="M816.87,210.07c-5.14,1.63-4.56,2.29-9.31-.57-.63-1.64-.16-7-2.81-7.17-1.62-.07-5.13-1.49-6,.59-2.53,4.87-1.55,4.65-7,5.86-4.63-2.92-5.26-5.48-10.32-1.12-2.32,1.28.74,5.9,1,7.57a18.57,18.57,0,0,0-2.38,3.69c-5.21,1.09-7.77-.57-8.11,6.14-.66,2.5,5,3.69,6.32,4.7a18.62,18.62,0,0,0,1.08,4.21c-3,4.39-5.77,5-1.15,9.8,1.37,2.2,6.22-.69,8-.91a20.75,20.75,0,0,0,3.89,2.26c.62,1.65.17,7,2.81,7.17,6.52,1.65,5.87-.6,8.61-5.44a21.36,21.36,0,0,0,4.43-1c4.63,2.92,5.26,5.48,10.32,1.12,2.32-1.28-.74-5.89-1-7.56a19.18,19.18,0,0,0,2.37-3.7c5.21-1.09,7.77.57,8.11-6.14.66-2.5-5-3.69-6.32-4.7a19.17,19.17,0,0,0-1.08-4.21c.73-1.52,5.11-5,3.34-6.94C820.49,212.51,819,209.2,816.87,210.07Zm-9.36,28.64c-15.11,10.64-33.35-11.4-17.46-22.8C805.15,205.27,823.39,227.32,807.51,238.71Z"/><path class="cls-12" d="M788.42,230.06c3.41,12.65,24.64,7.46,20.71-5.49C805.72,211.9,784.49,217.09,788.42,230.06Zm15.69-4.16c2,6.66-8.92,9.33-10.67,2.82C791.42,222.05,802.35,219.38,804.11,225.9Z"/><path class="cls-2" d="M828,394.8c-.38.95-16.42,22.22-15.57,22.92,2.74,2.74,7.83.22,10.84-2,10.31-8.47,11.07-25.67-2.49-31.49-37.13-14.39-45.87,51.74-3.08,43l5.91,2.91c-41.75,16.49-56.26-45.42-14.45-53,24.2-1.82,36.55,27.08,16.9,42.46-4.9,4.44-20.92,7.2-20-2.71-11,4.31-17.56-7.43-11.92-17,4.33-10.77,23.27-21.46,26.14-4.78l2.13-3Zm-28.52,9.4c-2.85,4.63-.79,11,5.07,8.93,4.46-2.23,12.73-12.24,11.89-17.73C812,385.71,801.8,398.92,799.51,404.2Z"/><g class="cls-17"><path class="cls-13" d="M776.2,382.22a1.43,1.43,0,0,0,1.36-1.69,6.91,6.91,0,0,0-2.87-3.76,79.6,79.6,0,0,0-6.88-5.56,7,7,0,0,0-4.28-2,1.44,1.44,0,0,0-1.37,1.69,6.91,6.91,0,0,0,2.87,3.76,79.6,79.6,0,0,0,6.88,5.56A7,7,0,0,0,776.2,382.22Z"/></g><g class="cls-17"><path class="cls-13" d="M766.67,375.42a1.36,1.36,0,0,0,1.34-1.71,7.79,7.79,0,0,0-3.19-3.94,94.56,94.56,0,0,0-7.48-5.9,7.83,7.83,0,0,0-4.59-2.17,1.36,1.36,0,0,0-1.34,1.7,7.84,7.84,0,0,0,3.19,3.94,92.45,92.45,0,0,0,7.49,5.9A7.84,7.84,0,0,0,766.67,375.42Z"/></g><g class="cls-17"><path class="cls-13" d="M770.81,366.05c1.19,0,2.79-1.1,2.79-2.41,0-1.08-1.94-3.6-3.1-3.6s-2.79,1.09-2.79,2.41C767.71,363.52,769.66,366.05,770.81,366.05Z"/></g><g class="cls-17"><path class="cls-13" d="M774,371.17q1.86.4,1.59-1.47a15.56,15.56,0,0,0-4.08-6.06q-4.55-5.26-9.45-10.2a15.51,15.51,0,0,0-5.74-4.53c-1.24-.27-1.76.22-1.58,1.47a15.35,15.35,0,0,0,4.08,6.06q4.54,5.26,9.45,10.2A15.56,15.56,0,0,0,774,371.17Z"/></g><g class="cls-17"><path class="cls-13" d="M778.82,365.27a3.27,3.27,0,0,0,1.78-1.22,1.73,1.73,0,0,0,0-2,11.12,11.12,0,0,0-1.85-2.71,1.74,1.74,0,0,0-1.89-.77,3.28,3.28,0,0,0-1.79,1.22,1.74,1.74,0,0,0,0,2,11.12,11.12,0,0,0,1.85,2.71A1.73,1.73,0,0,0,778.82,365.27Z"/></g><g class="cls-17"><path class="cls-13" d="M764.39,374.6a2.76,2.76,0,0,0,2.28-2.9c-.26-1.25-2.68-3.1-3.94-3.1a2.77,2.77,0,0,0-2.28,2.9C760.72,372.75,763.13,374.6,764.39,374.6Z"/></g><g class="cls-17"><path class="cls-13" d="M770.25,384.4c1.85,0,3-1.28,2-3.09a19.08,19.08,0,0,0-4-3.14,18.57,18.57,0,0,0-4.49-2.32c-1.85,0-3,1.28-2,3.09a25.73,25.73,0,0,0,8.45,5.46Z"/></g><g class="cls-17"><path class="cls-13" d="M780.19,370.72c3.93,0,0-5.36-.66-6.38q-3-4.39-6.34-8.5a9.49,9.49,0,0,0-4.2-3.74c-3.94,0,0,5.36.66,6.38q3,4.39,6.34,8.5A9.54,9.54,0,0,0,780.19,370.72Z"/></g><g class="cls-17"><path class="cls-13" d="M767,369.7a2.37,2.37,0,0,0,2.54-2.66,11.33,11.33,0,0,0-4.73-4.54,2.38,2.38,0,0,0-2.55,2.66A11.28,11.28,0,0,0,767,369.7Z"/></g><g class="cls-17"><path class="cls-13" d="M771.21,364.71c3.6,0,.21-4.69-.39-5.53a73.7,73.7,0,0,0-5.56-6.53,6.55,6.55,0,0,0-3.75-2.67c-3.6,0-.21,4.69.39,5.53a75.16,75.16,0,0,0,5.56,6.53A6.55,6.55,0,0,0,771.21,364.71Z"/></g><g class="cls-17"><path class="cls-13" d="M779.37,376.78c4.19,0-1-5.92-1.45-6.45q-3.55-4.23-7.47-8.13a10.16,10.16,0,0,0-4.71-3.46c-4.18,0,1,5.92,1.46,6.45q3.56,4.23,7.47,8.13A10.19,10.19,0,0,0,779.37,376.78Z"/></g><g class="cls-17"><path class="cls-13" d="M765.48,379.51a2.57,2.57,0,0,0,2.1-3c-.43-1.35-3.26-3.19-4.64-3.19a2.56,2.56,0,0,0-2.09,3C761.27,377.67,764.1,379.51,765.48,379.51Z"/></g><path class="cls-2" d="M173.74,318.16l-35.06-1c2.16-3,46-30.28,49.66-30.87Z"/><path class="cls-2" d="M195.56,289.88c27.78,42.86,20.47,26.86-30.95,62.37A7.71,7.71,0,0,1,154,349.77c-1.36-3.26-17.85-25.82-16.39-29.38l38.21,1.11,15.92-34.76A7.65,7.65,0,0,1,195.56,289.88Z"/><path class="cls-2" d="M239.35,374.51c2.16-3.63-6.34-1.7-7.16-3.65-3.42-7.62-3.65-7.66-7.2-.06-.27,1.07-5.72,1.15-6.51,1.43-3.88,1.67,4.12,5.11,3.64,7.17-1.71,8.17-1.55,8.34,5.79,4.28,1.83-1.06,7.47,5.57,7.92,1.37C234.57,378,234.13,379.39,239.35,374.51Z"/><path class="cls-2" d="M44.54,601.24c2.17-3.63-6.33-1.71-7.15-3.65-3.42-7.62-3.65-7.67-7.2-.06-.28,1.06-5.73,1.14-6.51,1.43-3.89,1.66,4.12,5.1,3.64,7.16-1.71,8.17-1.56,8.34,5.79,4.28,1.82-1.06,7.46,5.58,7.91,1.38C39.76,604.71,39.33,606.11,44.54,601.24Z"/><path class="cls-2" d="M468.77,77.39c2.17-3.63-6.33-1.71-7.15-3.66-3.42-7.61-3.65-7.66-7.2-.06-.28,1.07-5.73,1.15-6.51,1.44-3.89,1.66,4.12,5.1,3.64,7.16-1.71,8.17-1.56,8.34,5.79,4.28,1.83-1.06,7.46,5.57,7.91,1.38C464,80.86,463.56,82.26,468.77,77.39Z"/><path class="cls-2" d="M651.6,300.35c2.16-3.63-6.33-1.71-7.16-3.65-3.41-7.62-3.64-7.67-7.2-.06-.27,1.07-5.72,1.15-6.51,1.43-3.88,1.67,4.12,5.1,3.64,7.16-1.71,8.17-1.55,8.35,5.79,4.28,1.83-1.05,7.47,5.58,7.92,1.38C646.82,303.83,646.39,305.22,651.6,300.35Z"/><path class="cls-2" d="M605.7,393c2.17-3.63-6.33-1.71-7.15-3.65-3.42-7.62-3.65-7.66-7.2-.06-.28,1.07-5.73,1.15-6.51,1.43-3.89,1.67,4.12,5.11,3.64,7.16-1.71,8.17-1.56,8.35,5.79,4.28,1.83-1,7.46,5.58,7.91,1.38C600.92,396.47,600.49,397.86,605.7,393Z"/><path class="cls-2" d="M850.34,641.71c2.17-3.63-6.33-1.71-7.15-3.66-3.42-7.61-3.65-7.66-7.2,0-.27,1.06-5.73,1.14-6.51,1.43-3.89,1.66,4.12,5.1,3.64,7.16-1.71,8.17-1.55,8.34,5.79,4.28,1.83-1.06,7.46,5.58,7.91,1.38C845.57,645.18,845.13,646.58,850.34,641.71Z"/><path class="cls-2" d="M790.45,735.86H11.34A11.35,11.35,0,0,1,0,724.51H0a11.34,11.34,0,0,1,11.34-11.34H790.45a11.34,11.34,0,0,1,11.34,11.34h0A11.34,11.34,0,0,1,790.45,735.86Z"/></g></g></g></svg>