<svg xmlns="http://www.w3.org/2000/svg" xmlns:xlink="http://www.w3.org/1999/xlink" viewBox="0 0 1158.79 624.11"><defs><style>.cls-1{fill:none;}.cls-2{fill:#e5e5e5;}.cls-3{fill:#f2f2f2;}.cls-4{opacity:0.26;}.cls-5{clip-path:url(#clip-path);}.cls-6{fill:#8d8d8d;}.cls-7{fill:#083750;}.cls-8{fill:#fff;}.cls-9{fill:#d6ddee;}.cls-10{fill:#f9cbcb;}.cls-11{fill:#ebb0b0;}.cls-12{fill:#ffc3ab;}.cls-13{fill:#e1ba36;}.cls-14{fill:#117ba7;}.cls-15{fill:#5e5e5e;}.cls-16{fill:#013652;}.cls-17{fill:#135b80;}.cls-18{opacity:0.3;}.cls-19{clip-path:url(#clip-path-2);}</style><clipPath id="clip-path" transform="translate(0 0)"><rect class="cls-1" x="712.87" y="430.07" width="325.82" height="190"/></clipPath><clipPath id="clip-path-2" transform="translate(0 0)"><rect class="cls-1" x="226.39" width="121.86" height="41.64"/></clipPath></defs><title>Asset 1</title><g id="Layer_2" data-name="Layer 2"><g id="Layer_1-2" data-name="Layer 1"><path class="cls-2" d="M455.88,619.91c41-22.43,71.18-63.62,80.26-109.44,5.4-27.25,2.56-58.28-16.53-78.46s-57.41-22-72.26,1.47c18.64-47.65,35.89-98.38,28.5-149s-47.36-100.15-98.53-100.84c-47.7-.65-87.55,41.11-100.92,86.9s-6.37,94.75.73,141.92a211.26,211.26,0,0,0-82-59.28c-12.47-5-26.75-6.89-38.48-.31C127.83,369,130.08,431.62,198.13,507.4c-16.59-19-52.4-5.18-58.28,19.34s11.29,49.88,33.54,61.75,147.29,31.42,147.29,31.42Z" transform="translate(0 0)"/><path class="cls-3" d="M404.86,609.86a441.07,441.07,0,0,1-30.62-69.74,460.23,460.23,0,0,1-18.39-73.61,465.71,465.71,0,0,1-6.15-76A460.79,460.79,0,0,1,356,314.64a444.62,444.62,0,0,1,18.77-73.17q1.57-4.5,3.25-9c.57-1.51-1.85-2.16-2.41-.66a444.69,444.69,0,0,0-20.52,73.69,463.61,463.61,0,0,0-7.82,75.8A470.7,470.7,0,0,0,352,457.75a461.55,461.55,0,0,0,17.06,74.59,445.51,445.51,0,0,0,29.16,70.37q2.21,4.23,4.49,8.41c.78,1.42,2.94.16,2.16-1.26" transform="translate(0 0)"/><path class="cls-3" d="M385,606.91Q370.43,589.09,355.05,572t-31.57-33.47q-16.12-16.29-33-31.82T256,476.47q-17.61-14.7-35.9-28.56l-4.61-3.47a1.26,1.26,0,0,0-1.71.45,1.28,1.28,0,0,0,.45,1.71q18.35,13.74,36,28.34t34.65,30q17,15.43,33.18,31.65t31.54,33.07q15.43,17,30,34.65,1.78,2.16,3.56,4.34a1.26,1.26,0,0,0,1.77,0,1.28,1.28,0,0,0,0-1.77" transform="translate(0 0)"/><path class="cls-3" d="M429.59,609.72a254.45,254.45,0,0,1,3.47-36.86,266.09,266.09,0,0,1,40.33-102.4,257,257,0,0,1,22.49-29.25q1.53-1.69,3.07-3.38c1.09-1.18-.67-2.95-1.76-1.77a260.07,260.07,0,0,0-23.32,29.23A264.57,264.57,0,0,0,455,497.38,269.28,269.28,0,0,0,440.71,532a266.17,266.17,0,0,0-9.32,36,260.84,260.84,0,0,0-4.17,37.17c-.06,1.53-.1,3.05-.13,4.57a1.25,1.25,0,0,0,2.5,0" transform="translate(0 0)"/><path class="cls-3" d="M385.8,571a156.84,156.84,0,0,1-1.54-27.47,164.37,164.37,0,0,1,3.2-27.44,168.09,168.09,0,0,1,7.74-26.55,164.32,164.32,0,0,1,12-24.88,158.24,158.24,0,0,1,16-22.37c.74-.86,1.49-1.71,2.25-2.56,1.07-1.19-.69-3-1.77-1.77a161.14,161.14,0,0,0-16.9,22.53,167.9,167.9,0,0,0-24.93,79.64,158.32,158.32,0,0,0,1,28c.15,1.16.3,2.33.47,3.49a1.27,1.27,0,0,0,1.54.88,1.3,1.3,0,0,0,.88-1.54" transform="translate(0 0)"/><path class="cls-3" d="M361.42,498.68a144,144,0,0,0-9.15-21.25A147.49,147.49,0,0,0,339.93,458a150.14,150.14,0,0,0-15.24-17.32,148.25,148.25,0,0,0-17.8-14.79,141.27,141.27,0,0,0-19.69-11.67c-.86-.42-1.73-.83-2.6-1.23a1.27,1.27,0,0,0-1.71.45,1.25,1.25,0,0,0,.45,1.71,140.06,140.06,0,0,1,19.86,11.22,143.26,143.26,0,0,1,17.64,14.1,145.54,145.54,0,0,1,27.9,35.66,139.68,139.68,0,0,1,9.35,20.54c.32.87.62,1.75.92,2.64a1.28,1.28,0,0,0,1.54.87,1.26,1.26,0,0,0,.87-1.54" transform="translate(0 0)"/><path class="cls-3" d="M346.17,563.93q-12.14-4.74-24.49-8.86t-24.89-7.61q-12.56-3.48-25.25-6.34T246,536.05q-12.81-2.2-25.73-3.78l-3.26-.38a1.25,1.25,0,0,0-1.25,1.25,1.28,1.28,0,0,0,1.25,1.25q12.83,1.47,25.57,3.6T268,542.9q12.66,2.76,25.17,6.17T318,556.49q12.32,4,24.42,8.67l3.06,1.18a1.26,1.26,0,0,0,1.54-.87,1.29,1.29,0,0,0-.87-1.54" transform="translate(0 0)"/><path class="cls-3" d="M293.16,509.06l-1.32-39.2c-.13-3.71-.25-7.41-.38-11.11,0-1.61-2.55-1.62-2.5,0l1.32,39.2c.13,3.71.25,7.41.38,11.11,0,1.61,2.55,1.62,2.5,0" transform="translate(0 0)"/><path class="cls-3" d="M352.94,393.41a190.43,190.43,0,0,1,26.81-35,197,197,0,0,1,16.23-15,194,194,0,0,1,17.78-13,192.07,192.07,0,0,1,19.28-11l2.42-1.18a1.25,1.25,0,1,0-1.27-2.15,189.8,189.8,0,0,0-19.5,10.77,198.11,198.11,0,0,0-34.82,27.93,195.77,195.77,0,0,0-27.65,35q-.74,1.19-1.44,2.37a1.25,1.25,0,0,0,2.16,1.26" transform="translate(0 0)"/><path class="cls-3" d="M352,344a98.09,98.09,0,0,1-14.45-25.13,101,101,0,0,1-6.66-28.35,98.93,98.93,0,0,1,0-16.42,1.25,1.25,0,0,0-1.25-1.25,1.28,1.28,0,0,0-1.25,1.25,101.54,101.54,0,0,0,2,29.71,103.47,103.47,0,0,0,10.46,27.89,100.34,100.34,0,0,0,9.39,14.06,1.26,1.26,0,0,0,1.77,0,1.27,1.27,0,0,0,0-1.76" transform="translate(0 0)"/><g class="cls-4"><g class="cls-5"><path class="cls-6" d="M991.63,620.07c13.17-6.06,26.73-21.89,36.38-32.72s14.36-27.43,7.31-40.1c-8.57-15.41-29.32-18.29-46.95-17.79s-37.3,1.93-50.72-9.51-15.14-31-18.08-48.4-10.91-37.25-28.15-40.91c-14.66-3.12-28.58,7.27-39.16,17.89A262,262,0,0,0,789.7,549.67c-20.89-12.77-49.79-24.93-67.51-8-11.32,10.79-11.56,29.5-4.81,43.61s19,24.68,30.9,34.83Z" transform="translate(0 0)"/></g></g><path class="cls-3" d="M874.52,606c-.67-8.07-1.33-16.14-1.75-24.22s-.59-16.17-.28-24.24a158.4,158.4,0,0,1,2.33-22,119.29,119.29,0,0,1,5.54-20.45,92.87,92.87,0,0,1,9.44-18.69c.48-.72,1-1.44,1.48-2.16a1.26,1.26,0,0,0-.45-1.71,1.28,1.28,0,0,0-1.71.45A92.52,92.52,0,0,0,879,511.68a116.13,116.13,0,0,0-6.09,20.48,154.45,154.45,0,0,0-2.77,22.07c-.46,8.1-.39,16.23,0,24.34s1,16.31,1.66,24.46c.09,1,.17,2,.25,3a1.28,1.28,0,0,0,1.25,1.25,1.26,1.26,0,0,0,1.25-1.25" transform="translate(0 0)"/><path class="cls-3" d="M901,598.66a119.28,119.28,0,0,1,14.92-12.84,124.84,124.84,0,0,1,54.32-22.28,119.26,119.26,0,0,1,19.53-1.35l2.46.06c1.61.06,1.61-2.44,0-2.5a121.23,121.23,0,0,0-20,1A126.47,126.47,0,0,0,952.48,565a129.68,129.68,0,0,0-18.72,7.27,126.27,126.27,0,0,0-17.28,10.08,122.53,122.53,0,0,0-15.55,12.83q-.88.86-1.74,1.74c-1.13,1.14.63,2.91,1.76,1.76" transform="translate(0 0)"/><path class="cls-3" d="M857,603.74a166.71,166.71,0,0,1-22.38-2.69,174.7,174.7,0,0,1-62.72-25.18,168.43,168.43,0,0,1-18-13.47l-2.13-1.86A1.25,1.25,0,0,0,750,562.3a172.4,172.4,0,0,0,18.26,14.17,175.06,175.06,0,0,0,19.69,11.47,179.29,179.29,0,0,0,21.32,9A175.24,175.24,0,0,0,831.33,603a173.38,173.38,0,0,0,22.82,3.12c.94.07,1.88.12,2.82.17a1.26,1.26,0,0,0,1.25-1.25,1.28,1.28,0,0,0-1.25-1.25" transform="translate(0 0)"/><path class="cls-3" d="M871.34,556.19A128.21,128.21,0,0,1,856.53,540a130.71,130.71,0,0,1-11.87-18.53c-1.91-3.63-3.66-7.35-5.21-11.16a1.29,1.29,0,0,0-1.54-.87A1.26,1.26,0,0,0,837,511a130.94,130.94,0,0,0,23.72,38q4.18,4.68,8.81,9a1.29,1.29,0,0,0,1.77,0,1.27,1.27,0,0,0,0-1.77" transform="translate(0 0)"/><path class="cls-3" d="M871.19,584.18q8.4-5.25,16.48-11t15.81-12q4.37-3.52,8.61-7.2a1.26,1.26,0,0,0,0-1.77,1.28,1.28,0,0,0-1.77,0q-7.37,6.38-15.12,12.31T879.26,576q-4.62,3.1-9.34,6.06c-1.36.85-.1,3,1.27,2.16" transform="translate(0 0)"/><path class="cls-3" d="M813.32,596.13a176.15,176.15,0,0,1-7.58-18.51,180.44,180.44,0,0,1-5.54-19.46Q799,552.6,798.06,547a1.25,1.25,0,1,0-2.41.66,180.81,180.81,0,0,0,10.84,39.12q2.18,5.38,4.67,10.64a1.25,1.25,0,0,0,1.71.44,1.28,1.28,0,0,0,.45-1.71" transform="translate(0 0)"/><path class="cls-3" d="M924.78,581.15a145.06,145.06,0,0,1,45.32,11c4.09,1.73,8.09,3.66,12,5.75,1.42.77,2.68-1.39,1.26-2.16a147.46,147.46,0,0,0-45-15.46c-4.48-.76-9-1.31-13.53-1.66a1.26,1.26,0,0,0-1.25,1.25,1.28,1.28,0,0,0,1.25,1.25" transform="translate(0 0)"/><path class="cls-3" d="M951.4,567.33a82,82,0,0,1,18-17.63c1.95-1.4,4-2.72,6-4a1.25,1.25,0,0,0-1.26-2.16A85.19,85.19,0,0,0,954,560.22c-1.66,1.88-3.24,3.84-4.74,5.85a1.27,1.27,0,0,0,.45,1.71,1.28,1.28,0,0,0,1.71-.45" transform="translate(0 0)"/><path class="cls-2" d="M13.67,624.11H1145.12a13.67,13.67,0,1,0,0-27.34H13.67a13.67,13.67,0,0,0,0,27.34" transform="translate(0 0)"/><path class="cls-2" d="M721.33,608.81H423.94a27.41,27.41,0,0,1-27.33-27.33L376.93,66.53c0-15,13.12-35,33.35-35H721.33a27.41,27.41,0,0,1,27.33,27.33V581.48a27.41,27.41,0,0,1-27.33,27.33" transform="translate(0 0)"/><path class="cls-7" d="M707.66,608.81H404.26a27.41,27.41,0,0,1-27.33-27.33V69.81a27.41,27.41,0,0,1,27.33-27.34h303.4A27.41,27.41,0,0,1,735,69.81V581.48a27.41,27.41,0,0,1-27.33,27.33" transform="translate(0 0)"/><rect class="cls-8" x="393.33" y="58.87" width="325.26" height="533.54" rx="10.93"/><path class="cls-2" d="M652.8,403.72H459a50.15,50.15,0,0,1-50-50V197.37a50.15,50.15,0,0,1,50-50H652.8a50.15,50.15,0,0,1,50,50V353.72a50.15,50.15,0,0,1-50,50" transform="translate(0 0)"/><path class="cls-2" d="M702,592.41V483.15a25.41,25.41,0,0,0-25.33-25.33H433.46a25.41,25.41,0,0,0-25.33,25.33V592.41Z" transform="translate(0 0)"/><path class="cls-9" d="M696.07,422.89H415.69a1.78,1.78,0,0,1-1.78-1.78v-.9a1.78,1.78,0,0,1,1.78-1.78H696.07a1.78,1.78,0,0,1,1.78,1.78v.9a1.78,1.78,0,0,1-1.78,1.78" transform="translate(0 0)"/><path class="cls-9" d="M695.62,434.32H416.14a2.23,2.23,0,1,1,0-4.46H695.62a2.23,2.23,0,1,1,0,4.46" transform="translate(0 0)"/><path class="cls-8" d="M495.58,370c1.88,9,3.91,20.49,5.49,33.48H608.45A295.89,295.89,0,0,1,612,371.4c3.59-20.09.61-36.68,2.11-59.74,0,0-23.85-7.16-44.59-7.56H535.75c-20.75.4-42.54,8.59-42.54,8.59,1.33,20.51-1.6,38.23,2.37,57.31" transform="translate(0 0)"/><rect class="cls-10" x="530.07" y="266.17" width="44.53" height="49.84"/><path class="cls-11" d="M530.07,266.17v27.35c15.13,3.87,33.19,1.63,44.53-9.74V266.17Z" transform="translate(0 0)"/><path class="cls-10" d="M580.25,312.69c0,7.74-17.41,16.62-26.57,16.62s-27.39-8.88-27.39-16.62,11.25-11.78,26.15-11.78,27.81,4,27.81,11.78" transform="translate(0 0)"/><path class="cls-10" d="M594.06,242.9c0,26.94-22.93,46.3-42.2,46.3s-42.2-19.36-42.2-46.3-10.76-60.37,42.2-60.37,42.2,33.43,42.2,60.37" transform="translate(0 0)"/><path class="cls-10" d="M513.73,252.36S493,262.73,493,245.1s20.73-10.36,20.73,0Z" transform="translate(0 0)"/><path class="cls-11" d="M509.12,242.49a10.47,10.47,0,0,0-1,1,6.22,6.22,0,0,0-1.28,3.85,9.87,9.87,0,0,0,.32,2.1,1.15,1.15,0,0,1-2.22.59,8.81,8.81,0,0,1,2.53-9.19,1.18,1.18,0,0,1,1.63,0,1.16,1.16,0,0,1,0,1.63" transform="translate(0 0)"/><path class="cls-11" d="M507.09,243.49c-.72-.05-1.55-.35-2.12-.38a10.16,10.16,0,0,0-3.2.31c-.77.21-2,.94-2.5-.08a1.17,1.17,0,0,1,.41-1.58,11.78,11.78,0,0,1,8-.49,1.16,1.16,0,0,1,.81,1.41,1.21,1.21,0,0,1-1.42.81" transform="translate(0 0)"/><path class="cls-10" d="M592,252.36s20.73,10.37,20.73-7.26S592,234.74,592,245.1Z" transform="translate(0 0)"/><path class="cls-11" d="M596.65,242.49a10.47,10.47,0,0,1,1,1,6.22,6.22,0,0,1,1.28,3.85,9.28,9.28,0,0,1-.32,2.1,1.15,1.15,0,0,0,2.22.59,8.81,8.81,0,0,0-2.53-9.19,1.15,1.15,0,1,0-1.63,1.63" transform="translate(0 0)"/><path class="cls-11" d="M598.68,243.49c.72-.05,1.55-.35,2.12-.38a10.16,10.16,0,0,1,3.2.31c.78.21,2,.94,2.5-.08a1.17,1.17,0,0,0-.41-1.58,11.78,11.78,0,0,0-8-.49,1.16,1.16,0,0,0-.81,1.41,1.21,1.21,0,0,0,1.42.81" transform="translate(0 0)"/><path class="cls-7" d="M503.44,194.08a27,27,0,0,1,9.56-9.15c6.6-3.67,14.67-4.26,21-8.42,5.73-3.78,9.39-10.1,15.08-13.93a21.91,21.91,0,0,1,34.05,20.32c5.42,1.47,10.4,3.88,13.43,8.47,3.4,5.16,3.38,11.79,3.12,18q-.93,22-3.86,43.88c-2.76-3.69-1.69-13.87-2-18.46-.18-2.52,0-5.25-1.42-7.34-1.17-1.73-3.19-2.64-5-3.63a38.77,38.77,0,0,1-16.47-17.35c-1.34,1.37-3.53,4.19-10.39,3.25-40-5.45-21,21.28-28.42,27.53-8.1,6.77-19.44,10.92-24.42,10.92-2.84-8.27-10-24.27-10-33a39.4,39.4,0,0,1,5.83-21.1" transform="translate(0 0)"/><path class="cls-12" d="M492.59,403.48c6.26-22,13.65-45.5,13.65-45.5l-26.87-16.69s-9,32.88-17,62.19Z" transform="translate(0 0)"/><path class="cls-8" d="M496.37,403.48c5.68-17.93,12.22-36.6,13.21-42.84,1.88-11.86,3-54.3-1.82-52.43,0,0-17,3.68-21.36,8.7-3.32,3.84-20.21,55-29.49,86.57Z" transform="translate(0 0)"/><path class="cls-12" d="M654.22,403.48c-7.8-28.77-16.4-60.11-16.4-60.11L611,360.07s6.92,22.07,13,43.41Z" transform="translate(0 0)"/><path class="cls-8" d="M620.16,403.48h39.5C650.28,371.8,634,322.76,630.79,319c-4.34-5-21.36-8.69-21.36-8.69-4.82-1.88-3.7,40.57-1.82,52.43.95,6,7,23.48,12.55,40.75" transform="translate(0 0)"/><path class="cls-9" d="M455.44,135.07H435.59a18.1,18.1,0,0,1-18-18v-9.09a18.1,18.1,0,0,1,18-18h19.85a18.1,18.1,0,0,1,18,18V117a18.1,18.1,0,0,1-18,18" transform="translate(0 0)"/><path class="cls-9" d="M581.4,110.33H480.1a.81.81,0,0,1,0-1.62H581.4a.81.81,0,0,1,0,1.62" transform="translate(0 0)"/><path class="cls-9" d="M581.4,123H480.1a.81.81,0,0,1,0-1.61H581.4a.81.81,0,1,1,0,1.61" transform="translate(0 0)"/><path class="cls-7" d="M640.46,71.65H489.12a9.83,9.83,0,0,1,0-19.65H640.46a9.83,9.83,0,1,1,0,19.65" transform="translate(0 0)"/><path class="cls-13" d="M870.5,341.41a388.45,388.45,0,0,1-47.08-2.12c-3.74-.4-6.7-3.8-7-8.05a344.92,344.92,0,0,1-.19-41.55c.24-4.26,3.17-7.68,6.91-8.11A386.43,386.43,0,0,1,870.22,279c4,0,7.34,3.54,7.64,8.08a377.83,377.83,0,0,1,.21,46.14c-.26,4.55-3.56,8.1-7.57,8.16" transform="translate(0 0)"/><path class="cls-8" d="M847.29,301.83a16.87,16.87,0,0,1,2.93-4.41c2-2,4.88-3.11,7.3-1.92s3.69,4.3,3.91,7.27c.42,5.65-2.24,11.14-5.9,15a34,34,0,0,1-6.76,5.38c-5.71-5.15-11.4-10.65-14.65-18a11.42,11.42,0,0,1-1.22-6c.27-2.06,1.77-4,3.61-4,1.42,0,2.62,1.14,3.65,2.25a51.82,51.82,0,0,1,5.75,7.57c.44-1,.89-2.06,1.38-3.06" transform="translate(0 0)"/><path class="cls-13" d="M221.31,264.4a273.73,273.73,0,0,1-29.18-1.14,4.77,4.77,0,0,1-4.32-4.39,163.5,163.5,0,0,1-.1-22.68,4.76,4.76,0,0,1,4.28-4.43,273.68,273.68,0,0,1,29.16-1.41,4.79,4.79,0,0,1,4.74,4.42A184,184,0,0,1,226,260a4.76,4.76,0,0,1-4.69,4.45" transform="translate(0 0)"/><path class="cls-8" d="M206.94,242.81a9,9,0,0,1,1.82-2.41,4.39,4.39,0,0,1,4.52-1.05,4.64,4.64,0,0,1,2.42,4c.26,3.09-1.39,6.08-3.66,8.19a21.48,21.48,0,0,1-4.19,2.94c-3.54-2.81-7.07-5.81-9.08-9.84a5.62,5.62,0,0,1-.75-3.28,2.48,2.48,0,0,1,2.24-2.2,3.56,3.56,0,0,1,2.26,1.23,28.62,28.62,0,0,1,3.56,4.13c.27-.56.55-1.13.86-1.67" transform="translate(0 0)"/><path class="cls-14" d="M350.33,58.79a6.11,6.11,0,0,1-5.67,5.38c-27.37,1.74-83.8,2.39-111.17,2a6.12,6.12,0,0,1-6-5.45c-.39-3.6-.69-7.9-.87-12.54-.11-2.48-.18-5.06-.22-7.69a284.62,284.62,0,0,1,1.29-35,6.11,6.11,0,0,1,6-5.39l3.91,0C260-.07,297.17.48,324.76,1.63c2.83.12,5.56.24,8.16.37,4.39.22,8.43.46,12,.72a6.11,6.11,0,0,1,5.62,5.43c1.42,13.08,1.36,37.57-.18,50.64" transform="translate(0 0)"/><path class="cls-14" d="M315.84,63.14a31.72,31.72,0,0,0,6.7,19.31c.53.68,1.07,1.74.4,2.29a1.66,1.66,0,0,1-1.48.06,40,40,0,0,1-25.74-23.71Z" transform="translate(0 0)"/><path class="cls-8" d="M291.38,46.21A2.42,2.42,0,1,1,289,43.79a2.42,2.42,0,0,1,2.42,2.42" transform="translate(0 0)"/><path class="cls-8" d="M322.19,46.21a2.42,2.42,0,1,1-2.42-2.42,2.42,2.42,0,0,1,2.42,2.42" transform="translate(0 0)"/><polygon class="cls-15" points="292.48 599.41 287.51 599.41 301.23 481.1 315.44 481.1 292.48 599.41"/><polygon class="cls-15" points="369.54 599.41 374.51 599.41 360.79 481.1 346.58 481.1 369.54 599.41"/><polygon class="cls-6" points="275.25 623.92 269.06 623.92 286.98 481.1 304.68 481.1 275.25 623.92"/><polygon class="cls-6" points="385.05 623.92 391.23 623.92 374.62 481.1 356.93 481.1 385.05 623.92"/><path class="cls-16" d="M276.51,485.44H386.17v2.14a8.48,8.48,0,0,1-8.47,8.47H285a8.48,8.48,0,0,1-8.47-8.47Z" transform="translate(0 0)"/><path class="cls-17" d="M426.26,402.84c-7.5-7.51-8.07-8.06-8.07-8.06s5.55,13.9-9.59,45c-6.17,12.67-17.56,20.45-26.44,20.45H280.52c-8.88,0-20.27-7.78-26.44-20.45-15.15-31.05-9.6-45-9.6-45l-8.07,8.06c-6.48,6.48,2.56,35.06,13,51.64s16.65,32.44,33.11,32.44h97.74c16.46,0,22.71-15.86,33.1-32.44s19.44-45.16,12.95-51.64" transform="translate(0 0)"/><path class="cls-14" d="M410.19,394.07c-4.63,2.14-7.05,7.25-8.56,12.13s-2.6,10.1-5.92,14c-1.73,2-4.62,3.64-7,2.45-2.65-1.32-2.85-5-2.56-7.92,3.29-33.22,15.21-64.86,15.21-98.25,0-7.88-8.92-13.22-15-16.31-25.64-12.93-57.21-14.08-85-8.47-11.39,2.3-40,9.85-40,24.78,0,33.39,11.92,65,15.21,98.25.29,3,.09,6.6-2.56,7.92-2.39,1.19-5.28-.42-7-2.45-3.31-3.88-4.4-9.11-5.91-14s-3.93-10-8.56-12.13-11.15.93-11.15,6c0,25.21,18.91,61.84,37.42,61.84,12,0,36.75,5.3,52.58,4.78,15.83.52,40.54-4.78,52.57-4.78,18.52,0,37.42-36.63,37.42-61.84,0-5.1-6.51-8.17-11.14-6" transform="translate(0 0)"/><g class="cls-18"><g class="cls-19"><path class="cls-17" d="M348.24,4c-37,8.16-51.32,16.8-64.45,24C250,46.71,230.49,40.86,226.44,40.44a284.62,284.62,0,0,1,1.29-35,6.11,6.11,0,0,1,6-5.39l3.91,0C260-.07,297.17.48,324.76,1.63c2.83.12,5.56.24,8.16.37,4.39.22,8.43.46,12,.72A6.08,6.08,0,0,1,348.24,4" transform="translate(0 0)"/></g></g><path class="cls-8" d="M260.57,46.21a2.42,2.42,0,1,1-2.42-2.42,2.42,2.42,0,0,1,2.42,2.42" transform="translate(0 0)"/></g></g></svg>